<svg id="svg" version="1.1" xmlns="http://www.w3.org/2000/svg" xmlns:xlink="http://www.w3.org/1999/xlink" width="400" height="400" viewBox="0, 0, 400,400"><g id="svgg"><path id="path0" d="M119.000 123.427 C 118.340 123.519,116.180 123.787,114.200 124.025 C 97.730 125.997,81.696 135.274,71.033 149.000 C 63.866 158.227,59.317 168.571,56.433 182.200 C 51.967 203.301,57.250 232.722,68.546 249.659 C 76.957 262.271,90.210 271.486,104.939 274.963 C 109.933 276.142,111.495 276.406,115.800 276.798 C 145.051 279.464,168.278 269.896,180.860 250.000 C 183.053 246.533,186.800 238.039,186.800 236.537 C 186.800 236.257,187.050 235.257,187.355 234.314 C 187.660 233.371,188.016 232.015,188.145 231.300 L 188.380 230.000 176.781 230.000 L 165.183 230.000 164.842 230.900 C 164.654 231.395,164.183 232.790,163.796 234.000 C 158.886 249.315,141.352 258.460,120.800 256.424 C 96.068 253.975,80.756 237.126,80.302 211.865 L 80.200 206.200 135.500 206.099 L 190.800 205.997 190.792 201.499 C 190.716 160.351,168.643 129.311,135.800 124.167 C 132.179 123.600,121.235 123.118,119.000 123.427 M202.003 123.900 C 202.004 124.065,203.545 126.270,205.427 128.800 C 208.918 133.494,226.664 157.664,229.200 161.180 C 233.611 167.294,250.206 189.832,250.421 190.000 C 250.561 190.110,251.439 191.324,252.371 192.697 C 253.303 194.070,254.231 195.296,254.433 195.420 C 255.453 196.051,255.755 195.601,233.253 227.000 C 229.627 232.060,224.525 239.220,221.915 242.912 C 219.305 246.603,215.587 251.823,213.652 254.512 C 206.569 264.351,198.350 276.065,198.135 276.625 C 197.946 277.119,200.010 277.200,212.713 277.200 L 227.512 277.200 230.692 272.500 C 233.769 267.955,241.176 256.940,260.619 228.000 C 265.718 220.410,270.161 214.146,270.492 214.081 C 270.887 214.003,273.053 216.883,276.811 222.481 C 279.955 227.166,284.540 233.970,286.998 237.600 C 289.457 241.230,296.118 251.130,301.802 259.600 C 307.486 268.070,312.500 275.495,312.943 276.100 L 313.750 277.200 329.475 277.200 C 338.124 277.200,345.200 277.101,345.200 276.979 C 345.200 276.858,342.328 272.763,338.817 267.879 C 335.307 262.996,331.986 258.370,331.438 257.600 C 330.889 256.830,325.402 249.180,319.244 240.600 C 313.085 232.020,306.957 223.470,305.624 221.600 C 304.291 219.730,299.421 212.945,294.801 206.521 C 290.180 200.098,286.402 194.608,286.404 194.321 C 286.406 194.035,290.924 187.770,296.443 180.400 C 308.430 164.395,311.797 159.887,316.738 153.234 C 318.794 150.465,320.902 147.660,321.422 147.000 C 321.942 146.340,326.056 140.850,330.564 134.800 L 338.760 123.800 324.282 123.695 C 316.319 123.637,309.603 123.667,309.357 123.761 C 309.112 123.855,307.409 126.062,305.574 128.666 C 303.738 131.270,298.892 138.080,294.806 143.800 C 290.720 149.520,283.716 159.330,279.243 165.600 C 270.296 178.142,270.579 177.858,269.155 175.714 C 268.602 174.881,266.975 172.490,265.539 170.400 C 255.169 155.303,234.852 125.600,234.280 124.700 L 233.582 123.600 217.791 123.600 C 209.106 123.600,202.001 123.735,202.003 123.900 M133.016 145.336 C 151.551 150.620,165.600 168.011,165.600 185.672 C 165.600 186.377,164.034 186.400,122.900 186.302 L 80.200 186.200 80.322 183.800 C 81.303 164.415,96.174 148.090,116.000 144.632 C 118.218 144.245,131.051 144.776,133.016 145.336 " stroke="none" fill="#fafafa" fill-rule="evenodd"></path><path id="path1" d="M193.800 0.596 C 193.580 0.700,191.150 0.877,188.400 0.989 C 179.749 1.341,176.226 1.612,175.400 1.989 C 174.960 2.190,172.800 2.534,170.600 2.754 C 168.400 2.974,165.070 3.436,163.200 3.781 C 161.330 4.125,158.990 4.519,158.000 4.656 C 157.010 4.793,156.020 5.044,155.800 5.214 C 155.580 5.384,154.363 5.651,153.095 5.808 C 151.827 5.965,150.691 6.252,150.571 6.447 C 150.451 6.641,149.924 6.800,149.400 6.800 C 148.876 6.800,148.352 6.954,148.235 7.143 C 148.119 7.331,147.099 7.595,145.969 7.729 C 144.840 7.863,143.709 8.138,143.458 8.341 C 143.206 8.544,142.197 8.842,141.215 9.004 C 140.234 9.166,139.109 9.457,138.715 9.649 C 138.322 9.842,137.662 10.168,137.249 10.373 C 136.836 10.578,135.844 10.868,135.045 11.018 C 134.245 11.168,133.502 11.435,133.393 11.611 C 133.285 11.786,132.477 12.052,131.598 12.200 C 130.719 12.349,130.000 12.634,130.000 12.835 C 130.000 13.036,129.550 13.200,129.000 13.200 C 128.450 13.200,128.000 13.364,128.000 13.565 C 128.000 13.766,127.280 14.051,126.400 14.200 C 125.520 14.349,124.800 14.634,124.800 14.835 C 124.800 15.036,124.440 15.200,124.000 15.200 C 123.560 15.200,123.200 15.350,123.200 15.533 C 123.200 15.717,122.975 15.869,122.700 15.872 C 122.425 15.874,121.355 16.264,120.322 16.738 C 119.289 17.212,118.254 17.600,118.022 17.600 C 117.790 17.600,117.600 17.780,117.600 18.000 C 117.600 18.220,117.150 18.400,116.600 18.400 C 116.050 18.400,115.600 18.566,115.600 18.768 C 115.600 18.971,115.060 19.255,114.400 19.400 C 113.740 19.545,113.200 19.829,113.200 20.032 C 113.200 20.234,113.002 20.400,112.760 20.400 C 112.280 20.400,109.522 21.623,109.200 21.979 C 109.090 22.101,108.100 22.650,107.000 23.200 C 105.900 23.750,104.940 24.335,104.867 24.500 C 104.793 24.665,104.478 24.800,104.167 24.800 C 103.855 24.800,103.600 24.980,103.600 25.200 C 103.600 25.420,103.251 25.600,102.824 25.600 C 102.397 25.600,101.947 25.761,101.826 25.959 C 101.704 26.156,100.889 26.690,100.015 27.146 C 99.141 27.601,97.675 28.475,96.757 29.087 C 95.839 29.699,94.664 30.435,94.144 30.722 C 93.625 31.009,93.200 31.394,93.200 31.578 C 93.200 31.763,92.750 32.026,92.200 32.164 C 91.650 32.302,91.200 32.592,91.200 32.808 C 91.200 33.023,90.930 33.200,90.600 33.200 C 90.270 33.200,90.000 33.377,90.000 33.592 C 90.000 33.808,89.550 34.098,89.000 34.236 C 88.450 34.374,88.000 34.608,88.000 34.757 C 88.000 34.906,87.415 35.367,86.700 35.782 C 85.985 36.198,85.256 36.777,85.080 37.069 C 84.904 37.361,84.539 37.600,84.268 37.600 C 83.998 37.600,83.517 37.960,83.200 38.400 C 82.883 38.840,82.419 39.200,82.170 39.200 C 81.921 39.200,81.269 39.605,80.722 40.100 C 79.356 41.335,76.828 43.321,76.046 43.773 C 75.691 43.978,74.841 44.719,74.158 45.420 C 73.475 46.121,72.717 46.763,72.473 46.847 C 70.756 47.438,47.450 70.725,46.858 72.442 C 46.779 72.668,46.013 73.571,45.154 74.447 C 44.295 75.324,43.279 76.526,42.896 77.120 C 42.101 78.354,41.384 79.274,40.100 80.710 C 39.605 81.264,39.200 81.879,39.200 82.077 C 39.200 82.274,38.795 82.853,38.300 83.363 C 37.805 83.873,37.130 84.697,36.800 85.194 C 36.470 85.691,35.975 86.333,35.700 86.620 C 35.425 86.908,35.200 87.336,35.200 87.571 C 35.200 87.807,35.032 88.000,34.827 88.000 C 34.622 88.000,34.330 88.391,34.178 88.869 C 34.026 89.347,33.557 90.109,33.136 90.561 C 32.714 91.014,32.266 91.793,32.141 92.292 C 32.016 92.791,31.764 93.200,31.581 93.200 C 31.217 93.200,26.800 100.172,26.800 100.747 C 26.800 100.942,26.530 101.326,26.200 101.600 C 25.870 101.874,25.600 102.436,25.600 102.849 C 25.600 103.262,25.443 103.600,25.252 103.600 C 25.060 103.600,24.295 104.815,23.552 106.300 C 22.808 107.785,22.101 109.090,21.979 109.200 C 21.623 109.522,20.400 112.280,20.400 112.760 C 20.400 113.002,20.234 113.200,20.032 113.200 C 19.829 113.200,19.545 113.740,19.400 114.400 C 19.255 115.060,18.971 115.600,18.768 115.600 C 18.566 115.600,18.400 115.872,18.400 116.205 C 18.400 116.538,18.228 117.123,18.018 117.505 C 17.100 119.172,15.200 123.706,15.200 124.228 C 15.200 124.543,15.036 124.800,14.835 124.800 C 14.634 124.800,14.349 125.520,14.200 126.400 C 14.051 127.280,13.766 128.000,13.565 128.000 C 13.364 128.000,13.200 128.450,13.200 129.000 C 13.200 129.550,13.028 130.000,12.818 130.000 C 12.608 130.000,12.315 130.675,12.166 131.500 C 12.017 132.325,11.755 133.180,11.584 133.400 C 11.412 133.620,11.145 134.475,10.991 135.300 C 10.837 136.125,10.551 136.800,10.355 136.800 C 10.160 136.800,10.000 137.239,10.000 137.776 C 10.000 138.313,9.837 138.854,9.637 138.977 C 9.438 139.100,9.151 140.100,9.000 141.200 C 8.849 142.300,8.572 143.294,8.386 143.409 C 8.199 143.524,7.933 144.469,7.796 145.509 C 7.554 147.336,7.402 147.851,6.476 150.000 C 6.239 150.550,5.925 151.990,5.778 153.200 C 5.631 154.410,5.374 155.580,5.208 155.800 C 5.041 156.020,4.793 157.010,4.656 158.000 C 4.519 158.990,4.125 161.330,3.781 163.200 C 3.436 165.070,2.974 168.400,2.754 170.600 C 2.534 172.800,2.190 174.960,1.989 175.400 C 1.788 175.840,1.526 177.820,1.407 179.800 C 1.287 181.780,1.114 184.480,1.021 185.800 C 0.512 193.060,0.414 203.895,0.798 210.400 C 1.038 214.470,1.331 219.418,1.448 221.396 C 1.566 223.374,1.809 225.174,1.990 225.396 C 2.171 225.618,2.448 227.600,2.607 229.800 C 2.766 232.000,3.009 233.980,3.148 234.200 C 3.287 234.420,3.609 235.950,3.864 237.600 C 4.777 243.497,4.912 244.205,5.201 244.600 C 5.362 244.820,5.616 245.990,5.766 247.200 C 6.033 249.359,6.701 251.809,7.239 252.600 C 7.388 252.820,7.637 253.945,7.793 255.100 C 7.948 256.255,8.215 257.200,8.386 257.200 C 8.557 257.200,8.815 258.093,8.960 259.184 C 9.105 260.275,9.398 261.275,9.612 261.407 C 9.825 261.539,10.000 262.087,10.000 262.624 C 10.000 263.161,10.180 263.600,10.400 263.600 C 10.620 263.600,10.799 263.915,10.798 264.300 C 10.796 265.163,11.881 268.602,12.639 270.132 C 12.948 270.755,13.200 271.610,13.200 272.032 C 13.200 272.455,13.364 272.800,13.565 272.800 C 13.766 272.800,14.051 273.520,14.200 274.400 C 14.349 275.280,14.634 276.000,14.835 276.000 C 15.036 276.000,15.200 276.326,15.200 276.724 C 15.200 277.121,15.464 277.796,15.787 278.224 C 16.110 278.651,16.380 279.315,16.387 279.700 C 16.394 280.085,16.560 280.400,16.757 280.400 C 16.953 280.400,17.233 280.895,17.379 281.500 C 17.745 283.017,18.542 284.800,18.853 284.800 C 18.995 284.800,19.229 285.430,19.374 286.200 C 19.518 286.970,19.789 287.600,19.975 287.600 C 20.161 287.600,20.437 288.093,20.588 288.696 C 20.740 289.299,20.991 289.884,21.147 289.996 C 21.303 290.108,22.222 291.775,23.189 293.700 C 24.156 295.625,25.094 297.200,25.274 297.200 C 25.453 297.200,25.600 297.410,25.600 297.666 C 25.600 297.923,26.410 299.432,27.400 301.021 C 28.390 302.609,29.200 304.109,29.200 304.354 C 29.200 304.599,29.380 304.800,29.600 304.800 C 29.820 304.800,30.000 304.993,30.000 305.229 C 30.000 305.464,30.225 305.908,30.500 306.215 C 31.403 307.222,31.790 307.803,32.563 309.311 C 32.983 310.130,33.478 310.800,33.663 310.800 C 33.848 310.800,34.000 311.042,34.000 311.339 C 34.000 311.635,34.371 312.310,34.824 312.839 C 35.278 313.367,35.998 314.206,36.424 314.703 C 36.851 315.200,37.200 315.757,37.200 315.942 C 37.200 316.127,37.571 316.710,38.024 317.239 C 39.884 319.407,40.232 319.850,40.929 320.931 C 41.674 322.086,42.334 322.910,44.800 325.764 C 45.570 326.655,46.380 327.630,46.600 327.930 C 46.820 328.230,47.360 328.877,47.800 329.366 C 48.240 329.856,49.500 331.322,50.600 332.624 C 53.080 335.559,66.282 348.764,68.198 350.226 C 68.973 350.817,70.294 351.952,71.134 352.750 C 71.974 353.547,73.100 354.560,73.636 355.000 C 74.172 355.440,75.160 356.250,75.831 356.800 C 76.502 357.350,77.561 358.160,78.183 358.600 C 78.806 359.040,79.874 359.859,80.558 360.420 C 82.901 362.345,87.000 365.301,87.900 365.715 C 88.395 365.942,88.800 366.280,88.800 366.464 C 88.800 366.649,89.055 366.800,89.367 366.800 C 89.678 366.800,89.993 366.935,90.067 367.100 C 90.376 367.795,100.775 374.400,101.561 374.400 C 101.802 374.400,102.000 374.559,102.000 374.753 C 102.000 374.948,102.315 375.222,102.700 375.363 C 103.085 375.504,104.210 376.063,105.200 376.605 C 106.190 377.148,107.225 377.594,107.500 377.596 C 107.775 377.598,108.000 377.780,108.000 378.000 C 108.000 378.220,108.270 378.400,108.600 378.400 C 108.930 378.400,109.200 378.580,109.200 378.800 C 109.200 379.020,109.425 379.206,109.700 379.214 C 109.975 379.221,110.920 379.575,111.800 380.000 C 112.680 380.425,113.625 380.779,113.900 380.786 C 114.175 380.794,114.400 380.980,114.400 381.200 C 114.400 381.420,114.670 381.600,115.000 381.600 C 115.330 381.600,115.600 381.772,115.600 381.982 C 115.600 382.192,116.230 382.482,117.000 382.626 C 117.770 382.771,118.400 383.020,118.400 383.180 C 118.400 383.339,119.390 383.807,120.600 384.218 C 121.810 384.629,122.800 385.085,122.800 385.232 C 122.800 385.378,123.520 385.613,124.400 385.754 C 125.280 385.894,126.000 386.187,126.000 386.405 C 126.000 386.622,126.450 386.800,127.000 386.800 C 127.550 386.800,128.000 386.964,128.000 387.165 C 128.000 387.366,128.720 387.651,129.600 387.800 C 130.480 387.949,131.200 388.234,131.200 388.435 C 131.200 388.636,131.605 388.801,132.100 388.802 C 132.595 388.804,133.516 389.074,134.146 389.402 C 134.776 389.731,135.620 390.000,136.022 390.000 C 136.424 390.000,136.858 390.170,136.986 390.377 C 137.114 390.584,138.024 390.875,139.009 391.022 C 139.994 391.170,140.800 391.437,140.800 391.617 C 140.800 391.796,141.790 392.066,143.000 392.217 C 144.210 392.368,145.200 392.651,145.200 392.846 C 145.200 393.041,145.815 393.200,146.567 393.200 C 147.318 393.200,147.993 393.378,148.067 393.596 C 148.140 393.814,149.325 394.110,150.700 394.253 C 152.075 394.397,153.200 394.668,153.200 394.857 C 153.200 395.046,153.752 395.200,154.426 395.200 C 155.101 395.200,156.002 395.387,156.429 395.615 C 156.855 395.844,158.418 396.141,159.902 396.276 C 161.386 396.411,162.699 396.671,162.819 396.854 C 162.940 397.036,164.875 397.306,167.119 397.453 C 169.364 397.600,171.200 397.857,171.200 398.023 C 171.200 398.190,172.145 398.415,173.300 398.524 C 174.455 398.633,177.560 398.938,180.200 399.202 C 186.499 399.833,214.250 399.831,220.600 399.199 C 223.240 398.937,226.345 398.633,227.500 398.524 C 228.655 398.415,229.600 398.190,229.600 398.023 C 229.600 397.857,231.343 397.606,233.474 397.466 C 235.605 397.326,237.531 397.029,237.754 396.806 C 237.977 396.583,238.806 396.400,239.596 396.400 C 240.386 396.400,242.069 396.130,243.335 395.800 C 244.602 395.470,246.080 395.200,246.620 395.200 C 247.159 395.200,247.600 395.043,247.600 394.852 C 247.600 394.660,248.675 394.382,249.988 394.233 C 251.301 394.085,252.482 393.791,252.611 393.582 C 252.741 393.372,253.377 393.200,254.024 393.200 C 254.671 393.200,255.200 393.041,255.200 392.846 C 255.200 392.651,256.187 392.369,257.394 392.218 C 258.600 392.067,259.684 391.787,259.803 391.595 C 259.922 391.403,260.824 391.125,261.809 390.978 C 262.794 390.830,263.600 390.550,263.600 390.355 C 263.600 390.160,264.140 390.000,264.800 390.000 C 265.460 390.000,266.000 389.831,266.000 389.625 C 266.000 389.418,266.810 389.128,267.800 388.979 C 268.790 388.831,269.600 388.550,269.600 388.355 C 269.600 388.160,269.888 388.000,270.240 388.000 C 270.591 388.000,271.491 387.730,272.240 387.400 C 272.988 387.070,274.212 386.530,274.960 386.200 C 275.709 385.870,276.491 385.600,276.699 385.600 C 277.065 385.600,279.076 384.739,280.495 383.974 C 280.877 383.768,281.462 383.600,281.795 383.600 C 282.128 383.600,282.400 383.434,282.400 383.232 C 282.400 383.029,282.940 382.745,283.600 382.600 C 284.260 382.455,284.800 382.171,284.800 381.968 C 284.800 381.766,285.160 381.600,285.600 381.600 C 286.040 381.600,286.400 381.434,286.400 381.232 C 286.400 381.029,286.940 380.745,287.600 380.600 C 288.260 380.455,288.800 380.171,288.800 379.968 C 288.800 379.766,288.979 379.600,289.197 379.600 C 289.843 379.600,292.800 378.235,292.800 377.937 C 292.800 377.787,293.340 377.545,294.000 377.400 C 294.660 377.255,295.200 376.990,295.200 376.812 C 295.200 376.633,295.650 376.374,296.200 376.236 C 296.750 376.098,297.200 375.808,297.200 375.592 C 297.200 375.377,297.470 375.200,297.800 375.200 C 298.130 375.200,298.400 375.020,298.400 374.800 C 298.400 374.580,298.625 374.393,298.900 374.384 C 299.175 374.376,300.390 373.748,301.600 372.990 C 302.810 372.231,304.250 371.390,304.800 371.119 C 305.814 370.620,308.434 368.811,308.800 368.356 C 308.910 368.220,309.405 367.981,309.900 367.827 C 310.395 367.672,310.800 367.378,310.800 367.173 C 310.800 366.968,311.070 366.800,311.400 366.800 C 311.730 366.800,312.000 366.653,312.000 366.474 C 312.000 366.294,312.675 365.767,313.500 365.301 C 314.325 364.836,315.360 364.128,315.800 363.727 C 316.240 363.327,317.374 362.497,318.320 361.881 C 319.266 361.266,320.140 360.501,320.263 360.181 C 320.385 359.862,320.709 359.600,320.982 359.600 C 321.254 359.600,321.874 359.256,322.358 358.836 C 323.531 357.819,326.307 355.547,327.290 354.800 C 327.724 354.470,328.849 353.480,329.790 352.600 C 330.730 351.720,332.812 349.830,334.417 348.400 C 336.021 346.970,337.822 345.284,338.419 344.652 C 339.016 344.021,339.685 343.325,339.905 343.105 C 340.125 342.885,340.845 342.165,341.505 341.505 C 342.165 340.845,342.911 340.101,343.164 339.852 C 346.023 337.039,347.074 335.946,348.328 334.480 C 349.138 333.534,350.558 331.953,351.485 330.967 C 352.412 329.981,353.486 328.640,353.871 327.987 C 354.257 327.334,354.693 326.800,354.841 326.800 C 355.134 326.800,359.600 321.380,359.600 321.024 C 359.600 320.904,359.949 320.400,360.376 319.903 C 360.802 319.406,361.522 318.567,361.976 318.039 C 362.429 317.510,362.800 316.959,362.800 316.814 C 362.800 316.669,363.122 316.202,363.517 315.775 C 363.911 315.349,364.847 314.100,365.598 313.000 C 366.348 311.900,367.196 310.762,367.481 310.471 C 367.766 310.181,368.000 309.686,368.000 309.371 C 368.000 309.057,368.180 308.800,368.400 308.800 C 368.620 308.800,368.800 308.618,368.800 308.397 C 368.800 308.175,369.340 307.248,370.000 306.337 C 370.660 305.425,371.200 304.437,371.200 304.140 C 371.200 303.843,371.352 303.600,371.537 303.600 C 371.722 303.600,372.217 302.928,372.637 302.106 C 373.057 301.284,373.625 300.372,373.900 300.078 C 374.175 299.783,374.400 299.286,374.400 298.971 C 374.400 298.657,374.537 298.400,374.705 298.400 C 374.873 298.400,375.188 298.042,375.405 297.604 C 377.666 293.050,379.855 288.975,380.099 288.867 C 380.264 288.793,380.400 288.551,380.400 288.327 C 380.400 287.817,381.666 285.069,382.025 284.800 C 382.172 284.690,382.418 284.150,382.572 283.600 C 382.726 283.050,383.190 281.880,383.603 281.000 C 385.070 277.876,386.000 275.638,386.000 275.234 C 386.000 275.009,386.360 274.183,386.800 273.400 C 387.240 272.617,387.601 271.756,387.602 271.488 C 387.604 271.220,387.856 270.520,388.162 269.933 C 388.468 269.346,388.843 268.131,388.994 267.233 C 389.146 266.335,389.434 265.600,389.635 265.600 C 389.836 265.600,390.000 265.150,390.000 264.600 C 390.000 264.050,390.163 263.600,390.362 263.600 C 390.562 263.600,390.849 262.700,391.000 261.600 C 391.151 260.501,391.421 259.510,391.600 259.400 C 391.779 259.290,392.049 258.299,392.200 257.200 C 392.351 256.100,392.638 255.200,392.838 255.200 C 393.037 255.200,393.200 254.606,393.200 253.880 C 393.200 253.154,393.385 252.375,393.611 252.149 C 393.836 251.924,394.132 250.808,394.266 249.669 C 394.401 248.531,394.666 247.600,394.856 247.600 C 395.045 247.600,395.200 247.159,395.200 246.620 C 395.200 246.080,395.470 244.602,395.800 243.335 C 396.130 242.069,396.400 240.296,396.400 239.396 C 396.400 238.496,396.579 237.581,396.799 237.361 C 397.018 237.142,397.315 235.306,397.458 233.281 C 397.602 231.257,397.848 229.600,398.005 229.600 C 398.162 229.600,398.399 228.475,398.532 227.100 C 398.664 225.725,398.979 222.620,399.232 220.200 C 399.835 214.415,399.837 186.337,399.235 180.600 C 398.981 178.180,398.664 175.075,398.532 173.700 C 398.399 172.325,398.162 171.200,398.006 171.200 C 397.849 171.200,397.606 169.457,397.466 167.326 C 397.326 165.195,397.029 163.269,396.806 163.046 C 396.583 162.823,396.400 161.994,396.400 161.204 C 396.400 160.414,396.130 158.731,395.800 157.465 C 395.470 156.198,395.200 154.720,395.200 154.180 C 395.200 153.641,395.045 153.200,394.856 153.200 C 394.667 153.200,394.407 152.184,394.279 150.943 C 394.151 149.702,393.856 148.496,393.623 148.263 C 393.390 148.030,393.200 147.246,393.200 146.520 C 393.200 145.794,393.031 145.200,392.825 145.200 C 392.618 145.200,392.325 144.345,392.174 143.300 C 392.023 142.255,391.762 141.220,391.595 141.000 C 391.427 140.780,391.164 139.836,391.010 138.902 C 390.856 137.968,390.566 137.103,390.365 136.978 C 390.164 136.854,390.000 136.403,390.000 135.976 C 390.000 135.549,389.837 135.200,389.638 135.200 C 389.438 135.200,389.151 134.300,389.000 133.200 C 388.849 132.100,388.576 131.200,388.394 131.200 C 388.212 131.200,387.936 130.621,387.781 129.913 C 387.625 129.205,387.356 128.350,387.183 128.013 C 386.540 126.765,385.600 124.468,385.596 124.140 C 385.594 123.953,385.150 122.900,384.609 121.800 C 384.068 120.700,383.619 119.575,383.613 119.300 C 383.606 119.025,383.420 118.800,383.200 118.800 C 382.980 118.800,382.800 118.531,382.800 118.203 C 382.800 117.408,381.485 114.400,381.137 114.400 C 380.987 114.400,380.745 113.860,380.600 113.200 C 380.455 112.540,380.171 112.000,379.968 112.000 C 379.766 112.000,379.600 111.713,379.600 111.362 C 379.600 110.778,378.495 108.476,377.986 108.000 C 377.869 107.890,377.331 106.855,376.792 105.700 C 376.252 104.545,375.674 103.600,375.506 103.600 C 375.338 103.600,375.200 103.240,375.200 102.800 C 375.200 102.360,375.052 102.000,374.871 102.000 C 374.690 102.000,374.143 101.235,373.656 100.300 C 372.670 98.408,371.903 97.102,371.599 96.800 C 371.489 96.690,371.145 96.108,370.835 95.507 C 370.526 94.905,369.941 94.058,369.536 93.623 C 369.131 93.189,368.800 92.646,368.800 92.417 C 368.800 92.188,368.620 92.000,368.400 92.000 C 368.180 92.000,368.000 91.743,368.000 91.429 C 368.000 91.114,367.763 90.619,367.474 90.329 C 367.185 90.038,366.309 88.810,365.527 87.600 C 364.746 86.390,363.767 85.012,363.353 84.537 C 362.939 84.063,362.330 83.263,362.000 82.761 C 361.670 82.258,360.995 81.423,360.500 80.905 C 360.005 80.387,359.600 79.819,359.600 79.643 C 359.600 79.467,359.233 78.890,358.784 78.361 C 358.335 77.833,357.522 76.860,356.978 76.200 C 354.011 72.604,353.252 71.730,351.700 70.123 C 350.765 69.155,350.000 68.216,350.000 68.036 C 350.000 67.856,346.625 64.309,342.500 60.153 C 335.943 53.548,333.715 51.469,329.255 47.800 C 328.720 47.360,327.454 46.240,326.441 45.311 C 325.429 44.383,324.478 43.618,324.328 43.611 C 324.179 43.605,323.389 42.970,322.573 42.200 C 321.756 41.430,320.961 40.800,320.805 40.800 C 320.650 40.800,320.090 40.429,319.561 39.976 C 319.033 39.522,318.194 38.802,317.697 38.376 C 317.200 37.949,316.654 37.600,316.484 37.600 C 316.154 37.600,314.315 36.235,313.170 35.139 C 312.790 34.776,312.101 34.359,311.639 34.213 C 311.178 34.066,310.800 33.778,310.800 33.573 C 310.800 33.368,310.530 33.200,310.200 33.200 C 309.870 33.200,309.600 33.023,309.600 32.808 C 309.600 32.592,309.150 32.302,308.600 32.164 C 308.050 32.026,307.600 31.794,307.600 31.648 C 307.600 31.501,306.970 31.043,306.200 30.628 C 305.430 30.213,304.800 29.722,304.800 29.537 C 304.800 29.352,304.599 29.200,304.354 29.200 C 304.109 29.200,302.609 28.390,301.021 27.400 C 299.432 26.410,297.923 25.600,297.666 25.600 C 297.410 25.600,297.199 25.465,297.197 25.300 C 297.195 25.135,296.790 24.809,296.297 24.575 C 294.293 23.627,290.187 21.383,289.996 21.132 C 289.884 20.984,289.299 20.740,288.696 20.588 C 288.093 20.437,287.600 20.161,287.600 19.975 C 287.600 19.789,286.970 19.518,286.200 19.374 C 285.430 19.229,284.800 18.951,284.800 18.755 C 284.800 18.560,284.440 18.400,284.000 18.400 C 283.560 18.400,283.200 18.240,283.200 18.045 C 283.200 17.849,282.570 17.571,281.800 17.426 C 281.030 17.282,280.400 16.992,280.400 16.782 C 280.400 16.572,280.051 16.400,279.624 16.400 C 279.197 16.400,278.745 16.234,278.619 16.031 C 278.494 15.828,277.853 15.543,277.195 15.399 C 276.538 15.255,276.000 14.987,276.000 14.803 C 276.000 14.620,275.280 14.349,274.400 14.200 C 273.520 14.051,272.800 13.766,272.800 13.565 C 272.800 13.364,272.386 13.200,271.880 13.200 C 271.374 13.200,270.789 13.049,270.580 12.864 C 270.078 12.419,265.129 10.800,264.272 10.800 C 263.902 10.800,263.600 10.620,263.600 10.400 C 263.600 10.180,263.161 10.000,262.624 10.000 C 262.087 10.000,261.539 9.825,261.407 9.612 C 261.275 9.398,260.275 9.105,259.184 8.960 C 258.093 8.815,257.200 8.553,257.200 8.377 C 257.200 8.201,256.208 7.934,254.995 7.782 C 253.782 7.630,252.691 7.348,252.571 7.153 C 252.451 6.959,251.823 6.800,251.176 6.800 C 250.529 6.800,250.000 6.643,250.000 6.452 C 250.000 6.260,248.877 5.976,247.504 5.821 C 246.131 5.666,244.826 5.397,244.604 5.223 C 244.206 4.913,243.536 4.783,237.600 3.864 C 235.950 3.609,234.420 3.285,234.200 3.145 C 233.980 3.005,231.954 2.761,229.697 2.602 C 227.440 2.443,225.494 2.153,225.373 1.957 C 225.252 1.760,223.622 1.600,221.750 1.600 C 219.879 1.600,218.041 1.436,217.666 1.235 C 216.963 0.859,194.512 0.257,193.800 0.596 M134.093 123.238 C 163.968 127.744,183.718 149.225,189.814 183.846 C 191.596 193.966,192.122 205.692,190.826 206.386 C 190.304 206.666,172.317 206.800,135.426 206.800 L 80.800 206.800 80.802 210.700 C 80.806 216.348,82.534 226.905,83.663 228.180 C 83.848 228.389,84.000 228.781,84.000 229.052 C 84.000 234.889,95.940 247.747,105.222 251.906 C 117.706 257.498,138.276 257.221,147.692 251.333 C 148.513 250.820,149.297 250.400,149.435 250.400 C 149.960 250.400,156.267 245.237,157.554 243.754 C 160.383 240.495,162.915 235.605,164.000 231.304 C 164.559 229.090,164.129 229.155,177.400 229.288 L 188.600 229.400 188.544 231.400 C 188.295 240.406,179.271 255.808,169.797 263.400 C 168.699 264.280,167.710 265.104,167.600 265.230 C 161.991 271.681,141.305 277.962,125.569 277.992 C 84.624 278.069,59.611 253.705,54.738 209.000 C 50.084 166.294,75.686 128.636,112.799 123.596 C 114.669 123.342,116.274 123.059,116.366 122.967 C 116.730 122.603,131.363 122.827,134.093 123.238 M235.695 125.800 C 236.767 127.340,238.501 129.860,239.548 131.400 C 241.989 134.988,254.424 153.139,256.340 155.912 C 262.001 164.102,268.251 173.269,269.141 174.687 C 269.723 175.615,270.318 176.380,270.461 176.387 C 270.714 176.400,276.205 168.809,293.000 145.227 C 297.400 139.049,301.226 133.681,301.501 133.297 C 301.777 132.914,303.467 130.530,305.258 128.000 C 307.048 125.470,308.712 123.268,308.956 123.106 C 309.667 122.635,339.112 122.734,339.405 123.208 C 339.619 123.554,334.480 130.892,330.728 135.600 C 329.683 136.911,309.793 163.560,304.608 170.596 C 303.312 172.353,302.094 173.973,301.901 174.196 C 301.544 174.606,294.531 183.967,289.553 190.679 L 286.824 194.359 290.939 200.079 C 298.415 210.473,305.944 220.969,307.378 223.000 C 309.015 225.317,327.768 251.472,328.506 252.467 C 328.778 252.834,329.990 254.525,331.200 256.224 C 332.410 257.924,336.235 263.253,339.700 268.067 C 343.165 272.880,346.000 277.084,346.000 277.409 C 346.000 277.921,343.831 278.000,329.870 278.000 L 313.739 278.000 312.932 277.100 C 312.487 276.605,309.606 272.420,306.529 267.800 C 303.452 263.180,297.900 254.900,294.191 249.400 C 290.482 243.900,284.737 235.350,281.424 230.400 C 278.111 225.450,275.310 221.310,275.199 221.200 C 275.089 221.090,274.099 219.613,272.999 217.918 C 271.900 216.223,270.820 214.830,270.600 214.822 C 270.380 214.815,268.135 217.912,265.611 221.705 C 263.087 225.497,260.871 228.780,260.686 229.000 C 260.501 229.220,259.410 230.840,258.261 232.600 C 257.112 234.360,252.770 240.840,248.613 247.000 C 244.455 253.160,238.276 262.340,234.881 267.400 C 231.486 272.460,228.431 276.915,228.092 277.300 C 227.362 278.129,197.497 278.404,196.992 277.586 C 196.725 277.155,197.328 276.277,212.000 255.754 C 216.950 248.829,222.295 241.327,223.877 239.082 C 225.460 236.837,229.720 230.860,233.344 225.800 C 251.156 200.930,253.998 196.875,253.973 196.358 C 253.958 196.051,253.193 194.781,252.273 193.536 C 251.353 192.291,246.192 185.271,240.804 177.936 C 235.416 170.601,230.793 164.330,230.530 164.000 C 229.403 162.586,212.720 139.886,211.614 138.261 C 211.291 137.787,209.682 135.600,208.037 133.400 C 202.617 126.149,200.811 123.505,201.033 123.146 C 201.157 122.946,208.354 122.837,217.500 122.896 L 233.747 123.000 235.695 125.800 M117.200 145.218 C 97.828 147.196,80.800 165.733,80.800 184.844 L 80.800 186.000 122.837 186.000 L 164.874 186.000 164.698 183.900 C 162.655 159.534,141.971 142.689,117.200 145.218 " stroke="none" fill="#343434" fill-rule="evenodd"></path><path id="path2" d="M117.905 123.483 C 118.402 123.579,119.122 123.575,119.505 123.475 C 119.887 123.375,119.480 123.296,118.600 123.301 C 117.720 123.305,117.407 123.387,117.905 123.483 M129.100 123.482 C 129.595 123.578,130.405 123.578,130.900 123.482 C 131.395 123.387,130.990 123.309,130.000 123.309 C 129.010 123.309,128.605 123.387,129.100 123.482 M201.600 123.751 C 201.600 124.054,201.915 124.540,202.300 124.832 C 202.896 125.282,202.925 125.278,202.500 124.801 C 202.225 124.492,202.000 124.092,202.000 123.911 C 202.000 123.730,209.183 123.631,217.962 123.691 C 226.741 123.751,233.840 123.665,233.738 123.500 C 233.364 122.895,201.600 123.143,201.600 123.751 M308.562 124.100 C 307.802 124.998,307.802 124.998,308.626 124.305 C 309.372 123.677,310.878 123.599,324.226 123.500 L 339.000 123.390 324.162 123.295 L 309.324 123.200 308.562 124.100 M113.700 123.876 C 114.085 123.976,114.715 123.976,115.100 123.876 C 115.485 123.775,115.170 123.693,114.400 123.693 C 113.630 123.693,113.315 123.775,113.700 123.876 M133.700 123.876 C 134.085 123.976,134.715 123.976,135.100 123.876 C 135.485 123.775,135.170 123.693,134.400 123.693 C 133.630 123.693,133.315 123.775,133.700 123.876 M337.599 125.300 C 337.010 126.104,336.913 126.384,337.345 126.033 C 338.001 125.500,338.993 124.000,338.689 124.000 C 338.613 124.000,338.122 124.585,337.599 125.300 M144.200 126.000 C 144.640 126.189,145.270 126.344,145.600 126.344 C 145.978 126.344,145.904 126.217,145.400 126.000 C 144.960 125.811,144.330 125.656,144.000 125.656 C 143.622 125.656,143.696 125.783,144.200 126.000 M236.400 128.000 C 236.870 128.660,237.344 129.200,237.454 129.200 C 237.564 129.200,237.270 128.660,236.800 128.000 C 236.330 127.340,235.856 126.800,235.746 126.800 C 235.636 126.800,235.930 127.340,236.400 128.000 M304.800 129.200 C 304.330 129.860,304.036 130.400,304.146 130.400 C 304.256 130.400,304.730 129.860,305.200 129.200 C 305.670 128.540,305.964 128.000,305.854 128.000 C 305.744 128.000,305.270 128.540,304.800 129.200 M154.200 129.890 C 154.420 130.100,155.320 130.676,156.200 131.170 C 157.080 131.665,157.440 131.770,157.000 131.404 C 156.106 130.661,153.572 129.291,154.200 129.890 M206.880 131.300 C 207.417 132.015,208.630 133.635,209.576 134.900 C 210.522 136.165,211.386 137.200,211.496 137.200 C 211.605 137.200,211.256 136.615,210.720 135.900 C 210.183 135.185,208.970 133.565,208.024 132.300 C 207.078 131.035,206.214 130.000,206.104 130.000 C 205.995 130.000,206.344 130.585,206.880 131.300 M240.800 134.400 C 241.696 135.720,242.520 136.800,242.630 136.800 C 242.740 136.800,242.096 135.720,241.200 134.400 C 240.304 133.080,239.480 132.000,239.370 132.000 C 239.260 132.000,239.904 133.080,240.800 134.400 M300.380 135.500 C 298.998 137.425,297.695 139.225,297.484 139.500 C 297.274 139.775,297.193 140.000,297.304 140.000 C 297.416 140.000,298.638 138.425,300.020 136.500 C 301.402 134.575,302.705 132.775,302.916 132.500 C 303.126 132.225,303.207 132.000,303.096 132.000 C 302.984 132.000,301.762 133.575,300.380 135.500 M330.155 135.300 C 329.115 136.675,328.092 138.025,327.883 138.300 C 327.673 138.575,327.592 138.800,327.703 138.800 C 327.813 138.800,328.919 137.450,330.161 135.800 C 331.403 134.150,332.335 132.800,332.233 132.800 C 332.131 132.800,331.196 133.925,330.155 135.300 M164.887 137.405 C 165.704 138.260,166.438 138.879,166.517 138.780 C 166.597 138.681,165.928 137.981,165.031 137.225 L 163.400 135.850 164.887 137.405 M212.391 138.788 C 212.857 139.441,213.442 140.102,213.691 140.256 C 213.941 140.411,213.641 139.876,213.025 139.068 C 211.688 137.315,211.184 137.092,212.391 138.788 M78.800 140.200 C 77.828 141.190,77.123 142.000,77.233 142.000 C 77.343 142.000,78.228 141.190,79.200 140.200 C 80.172 139.210,80.877 138.400,80.767 138.400 C 80.657 138.400,79.772 139.210,78.800 140.200 M245.200 140.800 C 246.096 142.120,246.920 143.200,247.030 143.200 C 247.140 143.200,246.496 142.120,245.600 140.800 C 244.704 139.480,243.880 138.400,243.770 138.400 C 243.660 138.400,244.304 139.480,245.200 140.800 M168.783 140.900 C 169.764 141.945,170.619 142.800,170.683 142.800 C 170.984 142.800,170.666 142.441,168.900 140.783 L 167.000 139.000 168.783 140.900 M214.800 142.000 C 215.270 142.660,215.744 143.200,215.854 143.200 C 215.964 143.200,215.670 142.660,215.200 142.000 C 214.730 141.340,214.256 140.800,214.146 140.800 C 214.036 140.800,214.330 141.340,214.800 142.000 M74.585 144.500 L 72.600 146.600 74.700 144.615 C 76.651 142.771,76.983 142.400,76.685 142.400 C 76.622 142.400,75.677 143.345,74.585 144.500 M126.500 144.676 C 126.885 144.776,127.515 144.776,127.900 144.676 C 128.285 144.575,127.970 144.493,127.200 144.493 C 126.430 144.493,126.115 144.575,126.500 144.676 M129.633 144.947 C 129.725 145.028,130.520 145.204,131.400 145.338 C 132.515 145.507,132.758 145.471,132.200 145.219 C 131.432 144.871,129.290 144.644,129.633 144.947 M218.000 146.400 C 218.470 147.060,218.944 147.600,219.054 147.600 C 219.164 147.600,218.870 147.060,218.400 146.400 C 217.930 145.740,217.456 145.200,217.346 145.200 C 217.236 145.200,217.530 145.740,218.000 146.400 M134.200 146.000 C 134.640 146.189,135.270 146.344,135.600 146.344 C 135.978 146.344,135.904 146.217,135.400 146.000 C 134.960 145.811,134.330 145.656,134.000 145.656 C 133.622 145.656,133.696 145.783,134.200 146.000 M105.000 147.774 C 102.372 149.039,102.884 149.078,105.649 147.823 C 106.832 147.286,107.620 146.838,107.400 146.828 C 107.180 146.818,106.100 147.244,105.000 147.774 M319.701 149.237 C 318.767 150.537,318.086 151.600,318.188 151.600 C 318.462 151.600,321.695 147.161,321.536 147.006 C 321.461 146.933,320.635 147.937,319.701 149.237 M250.400 148.400 C 250.870 149.060,251.344 149.600,251.454 149.600 C 251.564 149.600,251.270 149.060,250.800 148.400 C 250.330 147.740,249.856 147.200,249.746 147.200 C 249.636 147.200,249.930 147.740,250.400 148.400 M175.199 148.700 C 175.722 149.415,176.213 150.000,176.289 150.000 C 176.593 150.000,175.601 148.500,174.945 147.967 C 174.513 147.616,174.610 147.896,175.199 148.700 M290.000 150.000 C 289.530 150.660,289.236 151.200,289.346 151.200 C 289.456 151.200,289.930 150.660,290.400 150.000 C 290.870 149.340,291.164 148.800,291.054 148.800 C 290.944 148.800,290.470 149.340,290.000 150.000 M145.800 151.080 C 146.020 151.288,147.010 152.046,148.000 152.765 L 149.800 154.072 148.400 152.808 C 147.174 151.701,144.756 150.094,145.800 151.080 M95.978 153.349 C 94.560 154.532,92.770 156.194,92.000 157.043 C 91.230 157.892,91.770 157.506,93.200 156.186 C 94.630 154.866,96.520 153.210,97.400 152.507 C 98.280 151.803,98.900 151.221,98.778 151.213 C 98.656 151.206,97.396 152.167,95.978 153.349 M255.200 155.400 C 255.881 156.390,256.528 157.200,256.638 157.200 C 256.748 157.200,256.281 156.390,255.600 155.400 C 254.919 154.410,254.272 153.600,254.162 153.600 C 254.052 153.600,254.519 154.410,255.200 155.400 M152.400 156.600 C 153.817 158.030,155.067 159.200,155.177 159.200 C 155.287 159.200,154.217 158.030,152.800 156.600 C 151.383 155.170,150.133 154.000,150.023 154.000 C 149.913 154.000,150.983 155.170,152.400 156.600 M286.513 154.900 C 285.253 156.539,282.368 160.900,282.875 160.400 C 283.665 159.621,287.328 154.400,287.084 154.400 C 286.982 154.400,286.725 154.625,286.513 154.900 M312.548 158.900 C 311.275 160.348,307.162 166.000,307.381 166.000 C 307.491 166.000,308.931 164.200,310.581 162.000 C 313.500 158.107,314.159 157.068,312.548 158.900 M228.000 160.000 C 228.470 160.660,228.944 161.200,229.054 161.200 C 229.164 161.200,228.870 160.660,228.400 160.000 C 227.930 159.340,227.456 158.800,227.346 158.800 C 227.236 158.800,227.530 159.340,228.000 160.000 M181.628 159.400 C 181.628 159.620,181.886 160.250,182.200 160.800 C 182.514 161.350,182.772 161.620,182.772 161.400 C 182.772 161.180,182.514 160.550,182.200 160.000 C 181.886 159.450,181.628 159.180,181.628 159.400 M259.385 161.500 C 260.002 162.435,260.583 163.200,260.676 163.200 C 260.964 163.200,259.433 160.766,258.832 160.269 C 258.520 160.011,258.768 160.565,259.385 161.500 M281.125 162.500 C 279.504 164.674,278.240 166.636,278.871 166.000 C 279.686 165.179,282.513 161.200,282.282 161.200 C 282.179 161.200,281.659 161.785,281.125 162.500 M232.225 165.700 C 233.475 167.405,234.576 168.800,234.673 168.800 C 234.923 168.800,232.528 165.508,231.128 163.926 C 230.482 163.197,230.976 163.995,232.225 165.700 M84.865 167.417 C 84.195 168.888,84.323 169.202,85.047 167.865 C 85.386 167.240,85.588 166.654,85.496 166.563 C 85.405 166.471,85.121 166.856,84.865 167.417 M264.349 168.600 C 264.565 169.040,265.034 169.760,265.393 170.200 L 266.044 171.000 265.651 170.200 C 265.435 169.760,264.966 169.040,264.607 168.600 L 263.956 167.800 264.349 168.600 M236.056 171.018 C 236.774 172.018,237.630 173.053,237.959 173.318 C 238.287 173.583,237.779 172.765,236.830 171.500 C 234.787 168.778,234.172 168.395,236.056 171.018 M301.200 174.000 C 299.860 175.760,298.854 177.200,298.964 177.200 C 299.074 177.200,300.260 175.760,301.600 174.000 C 302.940 172.240,303.946 170.800,303.836 170.800 C 303.726 170.800,302.540 172.240,301.200 174.000 M271.507 176.000 C 270.893 176.984,270.456 177.008,269.722 176.100 C 269.211 175.468,269.198 175.488,269.592 176.300 C 270.162 177.477,270.950 177.441,271.763 176.200 C 272.124 175.650,272.326 175.200,272.213 175.200 C 272.099 175.200,271.782 175.560,271.507 176.000 M57.050 177.650 C 56.717 179.317,57.040 179.640,57.400 178.000 C 57.552 177.309,57.593 176.659,57.491 176.558 C 57.389 176.456,57.191 176.947,57.050 177.650 M80.656 180.084 C 80.521 180.588,80.428 181.450,80.449 182.000 C 80.472 182.589,80.631 182.271,80.836 181.225 C 81.203 179.352,81.073 178.527,80.656 180.084 M56.222 181.422 C 56.072 182.225,56.028 182.962,56.126 183.060 C 56.224 183.157,56.427 182.581,56.578 181.778 C 56.728 180.975,56.772 180.238,56.674 180.140 C 56.576 180.043,56.373 180.619,56.222 181.422 M292.155 186.100 C 291.115 187.475,290.092 188.825,289.883 189.100 C 289.673 189.375,289.592 189.600,289.703 189.600 C 289.813 189.600,290.919 188.250,292.161 186.600 C 293.403 184.950,294.335 183.600,294.233 183.600 C 294.131 183.600,293.196 184.725,292.155 186.100 M165.115 185.200 C 165.018 185.860,165.087 186.400,165.269 186.400 C 165.451 186.400,165.600 185.860,165.600 185.200 C 165.600 184.540,165.530 184.000,165.445 184.000 C 165.360 184.000,165.212 184.540,165.115 185.200 M55.301 188.200 C 55.305 189.080,55.387 189.393,55.483 188.895 C 55.579 188.398,55.575 187.678,55.475 187.295 C 55.375 186.913,55.296 187.320,55.301 188.200 M54.901 191.400 C 54.905 192.280,54.987 192.593,55.083 192.095 C 55.179 191.598,55.175 190.878,55.075 190.495 C 54.975 190.113,54.896 190.520,54.901 191.400 M250.400 190.175 C 250.400 190.511,252.854 194.000,253.091 194.000 C 253.294 194.000,252.898 193.353,251.522 191.440 C 250.905 190.582,250.400 190.013,250.400 190.175 M190.514 193.800 C 190.517 194.900,190.595 195.303,190.687 194.695 C 190.779 194.086,190.777 193.186,190.682 192.695 C 190.587 192.203,190.511 192.700,190.514 193.800 M253.900 195.199 C 254.604 195.989,254.525 196.687,253.567 198.138 L 252.734 199.400 253.765 198.200 C 254.973 196.795,255.071 195.903,254.100 195.168 C 253.504 194.718,253.475 194.722,253.900 195.199 M288.175 197.332 C 288.791 198.139,289.376 198.800,289.475 198.800 C 289.753 198.800,288.021 196.460,287.509 196.144 C 287.259 195.989,287.559 196.524,288.175 197.332 M190.946 201.800 C 190.947 204.000,191.014 204.849,191.095 203.687 C 191.176 202.524,191.176 200.724,191.093 199.687 C 191.011 198.649,190.945 199.600,190.946 201.800 M249.600 203.600 C 249.130 204.260,248.836 204.800,248.946 204.800 C 249.056 204.800,249.530 204.260,250.000 203.600 C 250.470 202.940,250.764 202.400,250.654 202.400 C 250.544 202.400,250.070 202.940,249.600 203.600 M54.901 206.200 C 54.905 207.080,54.987 207.393,55.083 206.895 C 55.179 206.398,55.175 205.678,55.075 205.295 C 54.975 204.913,54.896 205.320,54.901 206.200 M294.400 206.000 C 294.870 206.660,295.344 207.200,295.454 207.200 C 295.564 207.200,295.270 206.660,294.800 206.000 C 294.330 205.340,293.856 204.800,293.746 204.800 C 293.636 204.800,293.930 205.340,294.400 206.000 M247.600 206.400 C 247.130 207.060,246.836 207.600,246.946 207.600 C 247.056 207.600,247.530 207.060,248.000 206.400 C 248.470 205.740,248.764 205.200,248.654 205.200 C 248.544 205.200,248.070 205.740,247.600 206.400 M80.169 206.535 C 80.056 206.830,80.026 208.495,80.102 210.235 L 80.239 213.400 80.320 209.929 C 80.387 207.001,80.509 206.430,81.100 206.276 C 81.756 206.104,81.755 206.090,81.087 206.046 C 80.696 206.021,80.282 206.241,80.169 206.535 M55.309 210.000 C 55.309 210.990,55.387 211.395,55.482 210.900 C 55.578 210.405,55.578 209.595,55.482 209.100 C 55.387 208.605,55.309 209.010,55.309 210.000 M241.600 214.800 C 241.130 215.460,240.836 216.000,240.946 216.000 C 241.056 216.000,241.530 215.460,242.000 214.800 C 242.470 214.140,242.764 213.600,242.654 213.600 C 242.544 213.600,242.070 214.140,241.600 214.800 M269.200 215.200 C 268.730 215.860,268.436 216.400,268.546 216.400 C 268.656 216.400,269.130 215.860,269.600 215.200 C 270.070 214.540,270.364 214.000,270.254 214.000 C 270.144 214.000,269.670 214.540,269.200 215.200 M56.080 216.200 C 56.080 216.640,56.224 217.450,56.400 218.000 C 56.654 218.792,56.720 218.833,56.720 218.200 C 56.720 217.760,56.576 216.950,56.400 216.400 C 56.146 215.608,56.080 215.567,56.080 216.200 M80.493 217.200 C 80.493 217.970,80.575 218.285,80.676 217.900 C 80.776 217.515,80.776 216.885,80.676 216.500 C 80.575 216.115,80.493 216.430,80.493 217.200 M239.200 218.200 C 238.519 219.190,238.052 220.000,238.162 220.000 C 238.272 220.000,238.919 219.190,239.600 218.200 C 240.281 217.210,240.748 216.400,240.638 216.400 C 240.528 216.400,239.881 217.210,239.200 218.200 M304.000 219.400 C 304.681 220.390,305.328 221.200,305.438 221.200 C 305.548 221.200,305.081 220.390,304.400 219.400 C 303.719 218.410,303.072 217.600,302.962 217.600 C 302.852 217.600,303.319 218.410,304.000 219.400 M275.600 221.200 C 276.496 222.520,277.320 223.600,277.430 223.600 C 277.540 223.600,276.896 222.520,276.000 221.200 C 275.104 219.880,274.280 218.800,274.170 218.800 C 274.060 218.800,274.704 219.880,275.600 221.200 M235.200 223.800 C 234.519 224.790,234.052 225.600,234.162 225.600 C 234.272 225.600,234.919 224.790,235.600 223.800 C 236.281 222.810,236.748 222.000,236.638 222.000 C 236.528 222.000,235.881 222.810,235.200 223.800 M308.256 225.300 C 308.992 226.516,311.293 229.600,311.463 229.600 C 311.566 229.600,310.894 228.520,309.968 227.200 C 308.497 225.103,307.397 223.883,308.256 225.300 M232.800 227.200 C 232.330 227.860,232.036 228.400,232.146 228.400 C 232.256 228.400,232.730 227.860,233.200 227.200 C 233.670 226.540,233.964 226.000,233.854 226.000 C 233.744 226.000,233.270 226.540,232.800 227.200 M260.893 227.500 C 259.857 228.996,259.521 229.600,259.723 229.600 C 259.817 229.600,260.370 228.880,260.953 228.000 C 262.136 226.212,262.084 225.779,260.893 227.500 M59.256 230.000 C 59.256 230.330,59.411 230.960,59.600 231.400 C 59.817 231.904,59.944 231.978,59.944 231.600 C 59.944 231.270,59.789 230.640,59.600 230.200 C 59.383 229.696,59.256 229.622,59.256 230.000 M164.880 230.080 C 164.616 230.344,164.400 230.738,164.400 230.956 C 164.400 231.175,164.625 231.050,164.900 230.679 C 165.345 230.080,166.657 229.994,176.800 229.896 L 188.200 229.787 176.780 229.694 C 168.324 229.624,165.235 229.725,164.880 230.080 M188.249 230.615 C 188.112 230.973,188.015 231.566,188.034 231.933 C 188.053 232.300,188.227 232.069,188.421 231.420 C 188.798 230.158,188.665 229.533,188.249 230.615 M313.600 232.800 C 314.070 233.460,314.544 234.000,314.654 234.000 C 314.764 234.000,314.470 233.460,314.000 232.800 C 313.530 232.140,313.056 231.600,312.946 231.600 C 312.836 231.600,313.130 232.140,313.600 232.800 M256.893 233.500 C 255.857 234.996,255.521 235.600,255.723 235.600 C 255.817 235.600,256.370 234.880,256.953 234.000 C 258.136 232.212,258.084 231.779,256.893 233.500 M187.200 234.800 C 186.951 235.724,186.826 236.559,186.921 236.655 C 187.017 236.750,187.290 236.063,187.527 235.127 C 187.765 234.191,187.890 233.357,187.806 233.273 C 187.722 233.188,187.449 233.876,187.200 234.800 M315.600 235.600 C 316.070 236.260,316.544 236.800,316.654 236.800 C 316.764 236.800,316.470 236.260,316.000 235.600 C 315.530 234.940,315.056 234.400,314.946 234.400 C 314.836 234.400,315.130 234.940,315.600 235.600 M285.785 236.300 C 286.402 237.235,286.983 238.000,287.076 238.000 C 287.364 238.000,285.833 235.566,285.232 235.069 C 284.920 234.811,285.168 235.365,285.785 236.300 M87.923 238.200 C 88.155 238.640,88.913 239.630,89.608 240.400 L 90.872 241.800 89.565 240.000 C 87.964 237.796,87.364 237.138,87.923 238.200 M253.753 238.100 C 252.376 240.436,252.286 240.635,252.987 239.800 C 253.800 238.832,254.500 237.600,254.238 237.600 C 254.133 237.600,253.915 237.825,253.753 238.100 M223.600 240.000 C 223.130 240.660,222.836 241.200,222.946 241.200 C 223.056 241.200,223.530 240.660,224.000 240.000 C 224.470 239.340,224.764 238.800,224.654 238.800 C 224.544 238.800,224.070 239.340,223.600 240.000 M160.185 240.900 C 159.568 241.835,159.320 242.389,159.632 242.131 C 160.233 241.634,161.764 239.200,161.476 239.200 C 161.383 239.200,160.802 239.965,160.185 240.900 M64.081 242.591 C 64.559 243.576,65.019 244.314,65.103 244.230 C 65.284 244.049,63.668 240.800,63.397 240.800 C 63.294 240.800,63.602 241.606,64.081 242.591 M92.383 243.700 C 93.364 244.745,94.219 245.600,94.283 245.600 C 94.584 245.600,94.266 245.241,92.500 243.583 L 90.600 241.800 92.383 243.700 M290.677 243.631 C 291.075 244.308,291.656 245.073,291.968 245.331 C 292.280 245.589,292.032 245.035,291.415 244.100 C 290.120 242.137,289.609 241.812,290.677 243.631 M156.985 244.900 L 155.000 247.000 157.100 245.015 C 158.255 243.923,159.200 242.978,159.200 242.915 C 159.200 242.617,158.829 242.949,156.985 244.900 M220.800 244.000 C 220.330 244.660,220.036 245.200,220.146 245.200 C 220.256 245.200,220.730 244.660,221.200 244.000 C 221.670 243.340,221.964 242.800,221.854 242.800 C 221.744 242.800,221.270 243.340,220.800 244.000 M218.725 246.900 C 217.104 249.074,215.840 251.036,216.471 250.400 C 217.286 249.579,220.113 245.600,219.882 245.600 C 219.779 245.600,219.259 246.185,218.725 246.900 M66.749 247.400 C 66.965 247.840,67.434 248.560,67.793 249.000 L 68.444 249.800 68.051 249.000 C 67.835 248.560,67.366 247.840,67.007 247.400 L 66.356 246.600 66.749 247.400 M246.093 249.500 C 245.057 250.996,244.721 251.600,244.923 251.600 C 245.017 251.600,245.570 250.880,246.153 250.000 C 247.336 248.212,247.284 247.779,246.093 249.500 M178.175 253.868 C 177.559 254.676,177.259 255.211,177.509 255.056 C 178.021 254.740,179.753 252.400,179.475 252.400 C 179.376 252.400,178.791 253.061,178.175 253.868 M72.000 254.658 C 72.000 254.874,72.585 255.579,73.300 256.225 L 74.600 257.400 73.400 256.002 C 72.740 255.233,72.155 254.528,72.100 254.435 C 72.045 254.343,72.000 254.443,72.000 254.658 M139.800 254.800 C 139.296 255.017,139.222 255.144,139.600 255.144 C 139.930 255.144,140.560 254.989,141.000 254.800 C 141.504 254.583,141.578 254.456,141.200 254.456 C 140.870 254.456,140.240 254.611,139.800 254.800 M175.578 257.100 L 174.200 258.600 175.700 257.222 C 177.096 255.938,177.384 255.600,177.078 255.600 C 177.012 255.600,176.337 256.275,175.578 257.100 M330.800 256.800 C 331.270 257.460,331.744 258.000,331.854 258.000 C 331.964 258.000,331.670 257.460,331.200 256.800 C 330.730 256.140,330.256 255.600,330.146 255.600 C 330.036 255.600,330.330 256.140,330.800 256.800 M124.512 256.695 C 125.564 256.777,127.184 256.776,128.112 256.692 C 129.040 256.608,128.180 256.541,126.200 256.542 C 124.220 256.543,123.460 256.612,124.512 256.695 M210.800 258.000 C 210.330 258.660,210.036 259.200,210.146 259.200 C 210.256 259.200,210.730 258.660,211.200 258.000 C 211.670 257.340,211.964 256.800,211.854 256.800 C 211.744 256.800,211.270 257.340,210.800 258.000 M301.037 258.900 C 301.849 260.165,302.588 261.200,302.679 261.200 C 302.947 261.200,301.500 258.882,300.490 257.694 C 299.979 257.092,300.225 257.635,301.037 258.900 M332.656 259.300 C 333.392 260.516,335.693 263.600,335.863 263.600 C 335.966 263.600,335.294 262.520,334.368 261.200 C 332.897 259.103,331.797 257.883,332.656 259.300 M238.953 260.100 C 237.576 262.436,237.486 262.635,238.187 261.800 C 239.000 260.832,239.700 259.600,239.438 259.600 C 239.333 259.600,239.115 259.825,238.953 260.100 M78.400 261.400 C 79.146 262.170,79.847 262.800,79.957 262.800 C 80.067 262.800,79.546 262.170,78.800 261.400 C 78.054 260.630,77.353 260.000,77.243 260.000 C 77.133 260.000,77.654 260.630,78.400 261.400 M171.178 261.500 L 169.800 263.000 171.300 261.622 C 172.696 260.338,172.984 260.000,172.678 260.000 C 172.612 260.000,171.937 260.675,171.178 261.500 M167.800 264.260 C 166.595 265.336,166.505 265.485,167.436 264.863 C 168.541 264.124,169.932 262.776,169.549 262.815 C 169.467 262.823,168.680 263.473,167.800 264.260 M304.585 264.300 C 305.202 265.235,305.783 266.000,305.876 266.000 C 306.164 266.000,304.633 263.566,304.032 263.069 C 303.720 262.811,303.968 263.365,304.585 264.300 M337.216 265.763 C 337.968 266.809,338.756 267.773,338.967 267.903 C 339.178 268.033,338.735 267.284,337.984 266.237 C 337.232 265.191,336.444 264.227,336.233 264.097 C 336.022 263.967,336.465 264.716,337.216 265.763 M82.400 264.562 C 82.400 264.672,83.210 265.319,84.200 266.000 C 85.190 266.681,86.000 267.148,86.000 267.038 C 86.000 266.928,85.190 266.281,84.200 265.600 C 83.210 264.919,82.400 264.452,82.400 264.562 M205.313 265.700 C 204.053 267.339,201.168 271.700,201.675 271.200 C 202.465 270.421,206.128 265.200,205.884 265.200 C 205.782 265.200,205.525 265.425,205.313 265.700 M88.400 268.584 C 88.400 268.694,89.120 269.151,90.000 269.600 C 90.880 270.049,91.600 270.326,91.600 270.216 C 91.600 270.106,90.880 269.649,90.000 269.200 C 89.120 268.751,88.400 268.474,88.400 268.584 M158.400 270.200 C 157.410 270.730,156.742 271.172,156.916 271.182 C 157.341 271.206,160.400 269.634,160.400 269.392 C 160.400 269.127,160.417 269.120,158.400 270.200 M199.020 274.551 C 198.019 275.954,197.200 277.214,197.200 277.351 C 197.200 277.488,204.028 277.600,212.373 277.600 L 227.546 277.600 228.406 276.300 L 229.266 275.000 228.318 276.100 L 227.370 277.200 212.685 277.200 C 204.608 277.200,198.000 277.049,198.000 276.865 C 198.000 276.681,198.730 275.511,199.622 274.265 C 200.514 273.019,201.153 272.000,201.042 272.000 C 200.931 272.000,200.021 273.148,199.020 274.551 M312.794 276.300 L 313.654 277.600 329.627 277.600 C 338.412 277.600,345.600 277.465,345.600 277.300 C 345.600 277.135,338.455 277.049,329.722 277.109 L 313.845 277.218 312.889 276.109 L 311.934 275.000 312.794 276.300 M140.800 276.000 C 140.008 276.254,139.967 276.320,140.600 276.320 C 141.040 276.320,141.850 276.176,142.400 276.000 C 143.192 275.746,143.233 275.680,142.600 275.680 C 142.160 275.680,141.350 275.824,140.800 276.000 M115.705 277.087 C 116.314 277.179,117.214 277.177,117.705 277.082 C 118.197 276.987,117.700 276.911,116.600 276.914 C 115.500 276.917,115.097 276.995,115.705 277.087 M133.305 277.087 C 133.914 277.179,134.814 277.177,135.305 277.082 C 135.797 276.987,135.300 276.911,134.200 276.914 C 133.100 276.917,132.697 276.995,133.305 277.087 M122.319 277.498 C 124.144 277.572,127.024 277.572,128.719 277.497 C 130.414 277.422,128.920 277.361,125.400 277.362 C 121.880 277.362,120.494 277.424,122.319 277.498 " stroke="none" fill="#9c9c9c" fill-rule="evenodd"></path><path id="path3" d="M122.700 123.093 C 123.635 123.177,125.165 123.177,126.100 123.093 C 127.035 123.009,126.270 122.940,124.400 122.940 C 122.530 122.940,121.765 123.009,122.700 123.093 M76.400 142.200 C 75.428 143.190,74.723 144.000,74.833 144.000 C 74.943 144.000,75.828 143.190,76.800 142.200 C 77.772 141.210,78.477 140.400,78.367 140.400 C 78.257 140.400,77.372 141.210,76.400 142.200 M101.700 186.300 C 113.305 186.359,132.295 186.359,143.900 186.300 C 155.505 186.241,146.010 186.193,122.800 186.193 C 99.590 186.193,90.095 186.241,101.700 186.300 M54.501 196.600 C 54.505 197.480,54.587 197.793,54.683 197.295 C 54.779 196.798,54.775 196.078,54.675 195.695 C 54.575 195.313,54.496 195.720,54.501 196.600 M54.493 201.200 C 54.493 201.970,54.575 202.285,54.676 201.900 C 54.776 201.515,54.776 200.885,54.676 200.500 C 54.575 200.115,54.493 200.430,54.493 201.200 M136.200 206.000 L 81.400 206.204 136.076 206.302 C 172.202 206.367,190.837 206.264,191.000 206.000 C 191.136 205.780,191.192 205.644,191.124 205.698 C 191.056 205.752,166.340 205.888,136.200 206.000 M73.600 256.925 C 73.600 256.994,74.185 257.579,74.900 258.225 L 76.200 259.400 75.025 258.100 C 73.930 256.888,73.600 256.616,73.600 256.925 M174.000 259.000 C 173.028 259.990,172.323 260.800,172.433 260.800 C 172.543 260.800,173.428 259.990,174.400 259.000 C 175.372 258.010,176.077 257.200,175.967 257.200 C 175.857 257.200,174.972 258.010,174.000 259.000 " stroke="none" fill="#949494" fill-rule="evenodd"></path><path id="path4" d="M115.400 123.197 C 114.739 123.364,115.728 123.408,117.600 123.294 C 119.470 123.181,121.075 123.024,121.167 122.944 C 121.474 122.678,116.614 122.891,115.400 123.197 M128.700 123.089 C 129.415 123.178,130.585 123.178,131.300 123.089 C 132.015 123.001,131.430 122.928,130.000 122.928 C 128.570 122.928,127.985 123.001,128.700 123.089 M201.027 123.157 C 200.810 123.507,206.809 132.111,207.618 132.611 C 207.844 132.751,206.583 130.898,204.815 128.493 C 203.047 126.088,201.600 123.913,201.600 123.660 C 201.600 123.321,205.800 123.200,217.567 123.200 L 233.533 123.200 234.396 124.300 C 234.871 124.905,235.129 125.130,234.969 124.800 C 233.958 122.713,234.721 122.800,217.362 122.800 C 208.354 122.800,201.150 122.957,201.027 123.157 M308.937 123.106 C 308.683 123.268,315.410 123.349,323.886 123.286 C 338.536 123.178,339.283 123.208,339.024 123.886 C 338.817 124.431,338.864 124.490,339.221 124.135 C 340.446 122.920,339.101 122.800,324.276 122.806 C 316.094 122.809,309.192 122.944,308.937 123.106 M305.308 127.900 C 303.786 130.045,302.392 132.070,302.211 132.400 C 301.535 133.634,302.715 132.135,305.203 128.600 C 306.597 126.620,307.908 124.775,308.117 124.500 C 308.327 124.225,308.403 124.000,308.287 124.000 C 308.170 124.000,306.830 125.755,305.308 127.900 M105.000 125.200 C 104.496 125.417,104.422 125.544,104.800 125.544 C 105.130 125.544,105.760 125.389,106.200 125.200 C 106.704 124.983,106.778 124.856,106.400 124.856 C 106.070 124.856,105.440 125.011,105.000 125.200 M94.800 129.000 C 93.810 129.530,93.180 129.964,93.400 129.964 C 93.620 129.964,94.610 129.530,95.600 129.000 C 96.590 128.470,97.220 128.036,97.000 128.036 C 96.780 128.036,95.790 128.470,94.800 129.000 M238.637 130.500 C 239.449 131.765,240.188 132.800,240.279 132.800 C 240.547 132.800,239.100 130.482,238.090 129.294 C 237.579 128.692,237.825 129.235,238.637 130.500 M154.549 129.686 C 156.925 131.318,160.044 133.094,159.015 132.230 C 158.364 131.683,156.924 130.771,155.815 130.203 C 154.707 129.636,154.137 129.403,154.549 129.686 M91.100 130.827 C 90.275 131.263,89.600 131.708,89.600 131.818 C 89.600 131.927,90.320 131.649,91.200 131.200 C 92.080 130.751,92.800 130.297,92.800 130.192 C 92.800 129.930,92.797 129.931,91.100 130.827 M331.970 133.500 C 331.021 134.765,330.513 135.583,330.841 135.318 C 331.515 134.775,334.146 131.200,333.873 131.200 C 333.776 131.200,332.919 132.235,331.970 133.500 M87.700 132.846 C 86.337 133.719,85.895 134.306,87.100 133.643 C 88.018 133.139,89.456 132.027,89.200 132.019 C 89.090 132.016,88.415 132.388,87.700 132.846 M160.400 133.346 C 160.400 133.456,160.940 133.930,161.600 134.400 C 162.260 134.870,162.800 135.164,162.800 135.054 C 162.800 134.944,162.260 134.470,161.600 134.000 C 160.940 133.530,160.400 133.236,160.400 133.346 M244.400 139.000 C 245.513 140.650,246.514 142.000,246.624 142.000 C 246.734 142.000,245.913 140.650,244.800 139.000 C 243.687 137.350,242.686 136.000,242.576 136.000 C 242.466 136.000,243.287 137.350,244.400 139.000 M81.710 137.169 C 78.811 139.589,78.314 140.047,78.450 140.175 C 78.532 140.254,79.590 139.438,80.800 138.363 C 82.901 136.496,83.574 135.613,81.710 137.169 M211.564 138.333 C 211.780 138.736,212.271 139.321,212.655 139.633 C 213.087 139.984,212.990 139.704,212.401 138.900 C 211.351 137.465,210.957 137.198,211.564 138.333 M169.000 140.800 C 170.306 142.120,171.465 143.200,171.575 143.200 C 171.685 143.200,170.706 142.120,169.400 140.800 C 168.094 139.480,166.935 138.400,166.825 138.400 C 166.715 138.400,167.694 139.480,169.000 140.800 M323.641 144.600 C 322.070 146.690,320.870 148.400,320.975 148.400 C 321.079 148.400,322.281 146.915,323.647 145.100 C 325.013 143.285,326.303 141.575,326.514 141.300 C 326.725 141.025,326.808 140.800,326.698 140.800 C 326.588 140.800,325.212 142.510,323.641 144.600 M294.400 143.200 C 293.930 143.860,293.636 144.400,293.746 144.400 C 293.856 144.400,294.330 143.860,294.800 143.200 C 295.270 142.540,295.564 142.000,295.454 142.000 C 295.344 142.000,294.870 142.540,294.400 143.200 M249.200 146.000 C 250.096 147.320,250.920 148.400,251.030 148.400 C 251.140 148.400,250.496 147.320,249.600 146.000 C 248.704 144.680,247.880 143.600,247.770 143.600 C 247.660 143.600,248.304 144.680,249.200 146.000 M118.200 144.763 C 117.100 144.893,119.080 145.001,122.600 145.002 C 126.593 145.004,128.173 144.906,126.800 144.742 C 124.181 144.429,120.949 144.437,118.200 144.763 M292.400 146.000 C 291.930 146.660,291.636 147.200,291.746 147.200 C 291.856 147.200,292.330 146.660,292.800 146.000 C 293.270 145.340,293.564 144.800,293.454 144.800 C 293.344 144.800,292.870 145.340,292.400 146.000 M111.000 146.000 C 109.981 146.438,111.032 146.438,112.400 146.000 C 113.204 145.743,113.243 145.677,112.600 145.668 C 112.160 145.662,111.440 145.811,111.000 146.000 M107.800 147.014 C 106.800 147.496,106.766 147.551,107.600 147.348 C 108.733 147.071,110.007 146.421,109.400 146.430 C 109.180 146.433,108.460 146.696,107.800 147.014 M70.948 148.100 C 69.516 149.729,66.815 153.682,67.874 152.600 C 68.468 151.993,72.011 147.200,71.866 147.200 C 71.797 147.200,71.383 147.605,70.948 148.100 M288.338 151.679 C 285.052 156.241,284.681 156.800,284.942 156.800 C 285.043 156.800,286.430 154.955,288.026 152.700 C 289.621 150.445,291.100 148.375,291.312 148.100 C 291.524 147.825,291.603 147.600,291.487 147.600 C 291.370 147.600,289.953 149.436,288.338 151.679 M219.600 149.200 C 220.070 149.860,220.544 150.400,220.654 150.400 C 220.764 150.400,220.470 149.860,220.000 149.200 C 219.530 148.540,219.056 148.000,218.946 148.000 C 218.836 148.000,219.130 148.540,219.600 149.200 M319.375 150.268 C 318.759 151.076,318.459 151.611,318.709 151.456 C 319.221 151.140,320.953 148.800,320.675 148.800 C 320.576 148.800,319.991 149.461,319.375 150.268 M176.985 150.700 C 177.602 151.635,178.183 152.400,178.276 152.400 C 178.564 152.400,177.033 149.966,176.432 149.469 C 176.120 149.211,176.368 149.765,176.985 150.700 M143.000 149.890 C 143.220 150.100,144.120 150.676,145.000 151.170 C 145.880 151.665,146.240 151.770,145.800 151.404 C 144.906 150.661,142.372 149.291,143.000 149.890 M253.785 152.700 C 254.402 153.635,254.983 154.400,255.076 154.400 C 255.364 154.400,253.833 151.966,253.232 151.469 C 252.920 151.211,253.168 151.765,253.785 152.700 M317.200 153.200 C 316.730 153.860,316.436 154.400,316.546 154.400 C 316.656 154.400,317.130 153.860,317.600 153.200 C 318.070 152.540,318.364 152.000,318.254 152.000 C 318.144 152.000,317.670 152.540,317.200 153.200 M222.296 152.900 C 222.513 153.175,223.984 155.155,225.565 157.300 C 227.146 159.445,228.542 161.200,228.667 161.200 C 228.792 161.200,228.455 160.615,227.918 159.900 C 227.381 159.185,225.897 157.205,224.622 155.500 C 223.347 153.795,222.213 152.400,222.103 152.400 C 221.992 152.400,222.080 152.625,222.296 152.900 M94.276 155.248 C 92.784 156.595,91.624 157.758,91.699 157.832 C 91.773 157.907,93.080 156.805,94.602 155.384 C 96.124 153.963,97.284 152.800,97.179 152.800 C 97.075 152.800,95.768 153.902,94.276 155.248 M148.600 153.461 C 150.662 155.527,154.439 158.808,153.200 157.456 C 152.430 156.616,150.900 155.193,149.800 154.294 C 148.700 153.395,148.160 153.020,148.600 153.461 M315.544 155.500 C 314.393 156.889,313.906 157.600,314.104 157.600 C 314.214 157.600,314.786 156.970,315.373 156.200 C 316.463 154.771,316.595 154.232,315.544 155.500 M181.200 158.000 C 181.649 158.880,182.106 159.600,182.216 159.600 C 182.326 159.600,182.049 158.880,181.600 158.000 C 181.151 157.120,180.694 156.400,180.584 156.400 C 180.474 156.400,180.751 157.120,181.200 158.000 M259.200 160.600 C 260.313 162.250,261.314 163.600,261.424 163.600 C 261.534 163.600,260.713 162.250,259.600 160.600 C 258.487 158.950,257.486 157.600,257.376 157.600 C 257.266 157.600,258.087 158.950,259.200 160.600 M312.400 159.600 C 311.703 160.480,311.223 161.200,311.333 161.200 C 311.443 161.200,312.103 160.480,312.800 159.600 C 313.497 158.720,313.977 158.000,313.867 158.000 C 313.757 158.000,313.097 158.720,312.400 159.600 M88.533 161.900 C 88.156 162.505,87.657 163.270,87.424 163.600 C 87.074 164.095,87.105 164.118,87.600 163.731 C 88.263 163.212,89.771 160.800,89.432 160.800 C 89.314 160.800,88.910 161.295,88.533 161.900 M229.696 162.995 C 230.193 163.762,230.744 164.392,230.920 164.395 C 231.097 164.398,230.760 163.770,230.173 163.000 C 228.800 161.200,228.532 161.197,229.696 162.995 M310.000 162.800 C 309.530 163.460,309.236 164.000,309.346 164.000 C 309.456 164.000,309.930 163.460,310.400 162.800 C 310.870 162.140,311.164 161.600,311.054 161.600 C 310.944 161.600,310.470 162.140,310.000 162.800 M158.030 164.200 C 158.524 165.080,159.100 165.980,159.310 166.200 C 159.909 166.828,158.539 164.294,157.796 163.400 C 157.430 162.960,157.535 163.320,158.030 164.200 M279.600 164.000 C 279.130 164.660,278.836 165.200,278.946 165.200 C 279.056 165.200,279.530 164.660,280.000 164.000 C 280.470 163.340,280.764 162.800,280.654 162.800 C 280.544 162.800,280.070 163.340,279.600 164.000 M86.000 166.000 C 85.551 166.880,85.274 167.600,85.384 167.600 C 85.494 167.600,85.951 166.880,86.400 166.000 C 86.849 165.120,87.126 164.400,87.016 164.400 C 86.906 164.400,86.449 165.120,86.000 166.000 M232.000 166.000 C 232.470 166.660,232.944 167.200,233.054 167.200 C 233.164 167.200,232.870 166.660,232.400 166.000 C 231.930 165.340,231.456 164.800,231.346 164.800 C 231.236 164.800,231.530 165.340,232.000 166.000 M263.837 167.300 C 264.649 168.565,265.388 169.600,265.479 169.600 C 265.747 169.600,264.300 167.282,263.290 166.094 C 262.779 165.492,263.025 166.035,263.837 167.300 M59.644 168.044 C 59.398 168.751,59.266 169.400,59.352 169.485 C 59.438 169.571,59.709 169.062,59.956 168.356 C 60.202 167.649,60.334 167.000,60.248 166.915 C 60.162 166.829,59.891 167.338,59.644 168.044 M275.600 169.600 C 275.130 170.260,274.836 170.800,274.946 170.800 C 275.056 170.800,275.530 170.260,276.000 169.600 C 276.470 168.940,276.764 168.400,276.654 168.400 C 276.544 168.400,276.070 168.940,275.600 169.600 M235.200 170.400 C 235.670 171.060,236.144 171.600,236.254 171.600 C 236.364 171.600,236.070 171.060,235.600 170.400 C 235.130 169.740,234.656 169.200,234.546 169.200 C 234.436 169.200,234.730 169.740,235.200 170.400 M303.649 171.337 C 302.742 172.512,302.000 173.617,302.000 173.791 C 302.000 173.965,302.327 173.679,302.727 173.154 C 304.944 170.243,305.674 169.200,305.496 169.200 C 305.387 169.200,304.555 170.162,303.649 171.337 M161.829 172.000 C 161.976 172.550,162.264 173.270,162.467 173.600 C 162.725 174.017,162.757 173.895,162.571 173.200 C 162.424 172.650,162.136 171.930,161.933 171.600 C 161.675 171.183,161.643 171.305,161.829 172.000 M186.856 172.000 C 186.856 172.330,187.011 172.960,187.200 173.400 C 187.417 173.904,187.544 173.978,187.544 173.600 C 187.544 173.270,187.389 172.640,187.200 172.200 C 186.983 171.696,186.856 171.622,186.856 172.000 M268.585 174.300 C 269.202 175.235,269.783 176.000,269.876 176.000 C 270.164 176.000,268.633 173.566,268.032 173.069 C 267.720 172.811,267.968 173.365,268.585 174.300 M272.024 174.565 C 271.356 175.536,270.623 176.422,270.395 176.535 C 270.167 176.648,270.207 176.694,270.486 176.638 C 270.985 176.537,273.878 172.800,273.457 172.800 C 273.337 172.800,272.692 173.594,272.024 174.565 M57.429 174.629 C 57.281 175.215,57.238 175.772,57.332 175.866 C 57.427 175.960,57.624 175.558,57.771 174.971 C 57.919 174.385,57.962 173.828,57.868 173.734 C 57.773 173.640,57.576 174.042,57.429 174.629 M187.668 174.800 C 187.688 175.839,188.318 177.546,188.332 176.600 C 188.338 176.160,188.189 175.440,188.000 175.000 C 187.789 174.510,187.661 174.432,187.668 174.800 M300.399 175.700 C 299.810 176.504,299.713 176.784,300.145 176.433 C 300.801 175.900,301.793 174.400,301.489 174.400 C 301.413 174.400,300.922 174.985,300.399 175.700 M239.600 176.400 C 240.070 177.060,240.544 177.600,240.654 177.600 C 240.764 177.600,240.470 177.060,240.000 176.400 C 239.530 175.740,239.056 175.200,238.946 175.200 C 238.836 175.200,239.130 175.740,239.600 176.400 M56.600 178.000 C 56.448 178.691,56.407 179.341,56.509 179.442 C 56.611 179.544,56.809 179.053,56.950 178.350 C 57.283 176.683,56.960 176.360,56.600 178.000 M164.028 179.633 C 164.044 180.165,164.219 180.960,164.419 181.400 C 164.671 181.958,164.707 181.715,164.538 180.600 C 164.255 178.743,163.987 178.236,164.028 179.633 M188.880 180.200 C 188.880 180.640,189.024 181.450,189.200 182.000 C 189.454 182.792,189.520 182.833,189.520 182.200 C 189.520 181.760,189.376 180.950,189.200 180.400 C 188.946 179.608,188.880 179.567,188.880 180.200 M243.168 181.200 C 243.846 182.190,244.865 183.540,245.432 184.200 C 246.225 185.122,246.178 184.983,245.232 183.600 C 244.554 182.610,243.535 181.260,242.968 180.600 C 242.175 179.678,242.222 179.817,243.168 181.200 M295.148 182.686 C 292.787 185.774,292.089 186.885,293.522 185.274 C 294.918 183.704,297.326 180.400,297.073 180.400 C 296.976 180.400,296.109 181.429,295.148 182.686 M55.469 183.156 C 55.321 183.895,55.220 184.883,55.244 185.350 C 55.268 185.817,55.447 185.390,55.642 184.400 C 55.837 183.410,55.938 182.423,55.867 182.206 C 55.796 181.990,55.617 182.417,55.469 183.156 M80.493 184.800 C 80.493 185.570,80.575 185.885,80.676 185.500 C 80.776 185.115,80.776 184.485,80.676 184.100 C 80.575 183.715,80.493 184.030,80.493 184.800 M247.616 187.363 C 249.395 189.840,250.106 190.279,248.457 187.882 C 247.760 186.869,246.978 185.910,246.720 185.750 C 246.461 185.591,246.865 186.316,247.616 187.363 M190.093 187.200 C 190.093 187.970,190.175 188.285,190.276 187.900 C 190.376 187.515,190.376 186.885,190.276 186.500 C 190.175 186.115,190.093 186.430,190.093 187.200 M54.893 188.400 C 54.893 189.170,54.975 189.485,55.076 189.100 C 55.176 188.715,55.176 188.085,55.076 187.700 C 54.975 187.315,54.893 187.630,54.893 188.400 M289.315 190.500 C 287.581 192.767,286.666 194.120,287.009 193.913 C 287.481 193.627,290.137 190.000,289.874 190.000 C 289.777 190.000,289.526 190.225,289.315 190.500 M54.528 192.800 C 54.528 194.230,54.601 194.815,54.689 194.100 C 54.778 193.385,54.778 192.215,54.689 191.500 C 54.601 190.785,54.528 191.370,54.528 192.800 M190.909 194.800 C 190.909 195.790,190.987 196.195,191.082 195.700 C 191.178 195.205,191.178 194.395,191.082 193.900 C 190.987 193.405,190.909 193.810,190.909 194.800 M252.947 194.400 C 254.059 196.074,254.147 196.472,253.599 197.353 C 253.120 198.123,253.132 198.150,253.736 197.651 C 254.663 196.885,254.544 195.998,253.327 194.600 C 252.588 193.751,252.477 193.693,252.947 194.400 M54.134 198.800 C 54.134 200.450,54.205 201.125,54.291 200.300 C 54.378 199.475,54.378 198.125,54.291 197.300 C 54.205 196.475,54.134 197.150,54.134 198.800 M191.198 201.482 C 191.089 204.166,191.141 206.221,191.314 206.048 C 191.486 205.874,191.575 203.678,191.512 201.166 L 191.396 196.600 191.198 201.482 M292.800 203.200 C 293.270 203.860,293.744 204.400,293.854 204.400 C 293.964 204.400,293.670 203.860,293.200 203.200 C 292.730 202.540,292.256 202.000,292.146 202.000 C 292.036 202.000,292.330 202.540,292.800 203.200 M54.528 204.800 C 54.528 206.230,54.601 206.815,54.689 206.100 C 54.778 205.385,54.778 204.215,54.689 203.500 C 54.601 202.785,54.528 203.370,54.528 204.800 M248.000 205.200 C 247.530 205.860,247.236 206.400,247.346 206.400 C 247.456 206.400,247.930 205.860,248.400 205.200 C 248.870 204.540,249.164 204.000,249.054 204.000 C 248.944 204.000,248.470 204.540,248.000 205.200 M80.484 210.700 L 80.569 215.000 80.698 210.901 L 80.828 206.803 135.714 206.700 L 190.600 206.597 135.500 206.499 L 80.400 206.400 80.484 210.700 M296.000 207.600 C 296.470 208.260,296.944 208.800,297.054 208.800 C 297.164 208.800,296.870 208.260,296.400 207.600 C 295.930 206.940,295.456 206.400,295.346 206.400 C 295.236 206.400,295.530 206.940,296.000 207.600 M54.893 209.600 C 54.893 210.370,54.975 210.685,55.076 210.300 C 55.176 209.915,55.176 209.285,55.076 208.900 C 54.975 208.515,54.893 208.830,54.893 209.600 M298.000 210.400 C 298.470 211.060,298.944 211.600,299.054 211.600 C 299.164 211.600,298.870 211.060,298.400 210.400 C 297.930 209.740,297.456 209.200,297.346 209.200 C 297.236 209.200,297.530 209.740,298.000 210.400 M244.000 210.800 C 243.530 211.460,243.236 212.000,243.346 212.000 C 243.456 212.000,243.930 211.460,244.400 210.800 C 244.870 210.140,245.164 209.600,245.054 209.600 C 244.944 209.600,244.470 210.140,244.000 210.800 M55.240 213.433 C 55.262 214.075,55.433 215.050,55.620 215.600 C 55.849 216.274,55.884 215.949,55.728 214.600 C 55.469 212.350,55.179 211.659,55.240 213.433 M241.517 214.300 C 239.875 216.597,239.501 217.200,239.718 217.200 C 239.810 217.200,240.642 216.120,241.568 214.800 C 242.494 213.480,243.166 212.400,243.063 212.400 C 242.960 212.400,242.264 213.255,241.517 214.300 M302.618 216.900 C 304.775 220.015,306.625 222.311,305.751 220.787 C 305.028 219.527,300.726 213.600,300.533 213.600 C 300.423 213.600,301.362 215.085,302.618 216.900 M268.800 216.400 C 268.330 217.060,268.036 217.600,268.146 217.600 C 268.256 217.600,268.730 217.060,269.200 216.400 C 269.670 215.740,269.964 215.200,269.854 215.200 C 269.744 215.200,269.270 215.740,268.800 216.400 M80.893 216.800 C 80.893 217.570,80.975 217.885,81.076 217.500 C 81.176 217.115,81.176 216.485,81.076 216.100 C 80.975 215.715,80.893 216.030,80.893 216.800 M266.585 219.700 C 265.968 220.635,265.720 221.189,266.032 220.931 C 266.633 220.434,268.164 218.000,267.876 218.000 C 267.783 218.000,267.202 218.765,266.585 219.700 M237.200 220.400 C 236.730 221.060,236.436 221.600,236.546 221.600 C 236.656 221.600,237.130 221.060,237.600 220.400 C 238.070 219.740,238.364 219.200,238.254 219.200 C 238.144 219.200,237.670 219.740,237.200 220.400 M276.267 222.806 C 276.659 223.470,277.398 224.505,277.910 225.106 C 278.421 225.708,278.175 225.165,277.363 223.900 C 275.824 221.503,275.028 220.707,276.267 222.806 M307.408 223.558 C 308.215 224.681,308.957 225.600,309.057 225.600 C 309.332 225.600,306.852 222.080,306.366 221.779 C 306.132 221.635,306.601 222.435,307.408 223.558 M235.200 223.200 C 234.730 223.860,234.436 224.400,234.546 224.400 C 234.656 224.400,235.130 223.860,235.600 223.200 C 236.070 222.540,236.364 222.000,236.254 222.000 C 236.144 222.000,235.670 222.540,235.200 223.200 M263.037 225.100 C 262.225 226.365,261.979 226.908,262.490 226.306 C 263.500 225.118,264.947 222.800,264.679 222.800 C 264.588 222.800,263.849 223.835,263.037 225.100 M57.256 224.000 C 57.256 224.330,57.411 224.960,57.600 225.400 C 57.817 225.904,57.944 225.978,57.944 225.600 C 57.944 225.270,57.789 224.640,57.600 224.200 C 57.383 223.696,57.256 223.622,57.256 224.000 M279.467 227.606 C 279.859 228.270,280.598 229.305,281.110 229.906 C 281.621 230.508,281.375 229.965,280.563 228.700 C 279.024 226.303,278.228 225.507,279.467 227.606 M231.200 228.800 C 230.730 229.460,230.436 230.000,230.546 230.000 C 230.656 230.000,231.130 229.460,231.600 228.800 C 232.070 228.140,232.364 227.600,232.254 227.600 C 232.144 227.600,231.670 228.140,231.200 228.800 M164.938 229.506 C 164.684 229.668,169.931 229.800,176.599 229.800 C 183.268 229.800,188.640 229.665,188.538 229.500 C 188.299 229.112,165.548 229.118,164.938 229.506 M283.477 233.631 C 283.875 234.308,284.456 235.073,284.768 235.331 C 285.080 235.589,284.832 235.035,284.215 234.100 C 282.920 232.137,282.409 231.812,283.477 233.631 M187.829 233.829 C 187.681 234.415,187.638 234.972,187.732 235.066 C 187.827 235.160,188.024 234.758,188.171 234.171 C 188.319 233.585,188.362 233.028,188.268 232.934 C 188.173 232.840,187.976 233.242,187.829 233.829 M256.493 234.700 C 255.320 236.393,255.034 237.114,255.977 236.000 C 256.953 234.846,257.713 233.600,257.441 233.600 C 257.339 233.600,256.912 234.095,256.493 234.700 M224.108 238.700 C 222.586 240.845,221.192 242.870,221.011 243.200 C 220.335 244.434,221.515 242.935,224.003 239.400 C 225.397 237.420,226.708 235.575,226.917 235.300 C 227.127 235.025,227.203 234.800,227.087 234.800 C 226.970 234.800,225.630 236.555,224.108 238.700 M162.065 236.617 C 161.395 238.088,161.523 238.402,162.247 237.065 C 162.586 236.440,162.788 235.854,162.696 235.763 C 162.605 235.671,162.321 236.056,162.065 236.617 M317.200 237.200 C 317.670 237.860,318.144 238.400,318.254 238.400 C 318.364 238.400,318.070 237.860,317.600 237.200 C 317.130 236.540,316.656 236.000,316.546 236.000 C 316.436 236.000,316.730 236.540,317.200 237.200 M286.362 237.800 C 286.590 238.240,287.154 239.050,287.615 239.600 C 288.187 240.282,288.322 240.346,288.038 239.800 C 287.810 239.360,287.246 238.550,286.785 238.000 C 286.213 237.318,286.078 237.254,286.362 237.800 M252.000 241.400 C 250.887 243.050,250.066 244.400,250.176 244.400 C 250.286 244.400,251.287 243.050,252.400 241.400 C 253.513 239.750,254.334 238.400,254.224 238.400 C 254.114 238.400,253.113 239.750,252.000 241.400 M62.428 239.800 C 62.428 240.020,62.686 240.650,63.000 241.200 C 63.314 241.750,63.572 242.020,63.572 241.800 C 63.572 241.580,63.314 240.950,63.000 240.400 C 62.686 239.850,62.428 239.580,62.428 239.800 M64.400 244.000 C 64.849 244.880,65.306 245.600,65.416 245.600 C 65.526 245.600,65.249 244.880,64.800 244.000 C 64.351 243.120,63.894 242.400,63.784 242.400 C 63.674 242.400,63.951 243.120,64.400 244.000 M91.717 242.659 C 92.061 243.224,96.800 247.353,96.800 247.088 C 96.800 246.984,95.593 245.841,94.118 244.549 C 92.643 243.257,91.563 242.406,91.717 242.659 M156.621 244.729 L 155.443 246.200 156.921 244.822 C 158.449 243.397,158.610 243.180,158.100 243.229 C 157.935 243.245,157.270 243.920,156.621 244.729 M323.212 245.522 C 324.166 246.908,325.136 248.160,325.367 248.303 C 325.841 248.596,322.992 244.529,322.072 243.600 C 321.745 243.270,322.258 244.135,323.212 245.522 M248.585 246.500 C 247.968 247.435,247.720 247.989,248.032 247.731 C 248.633 247.234,250.164 244.800,249.876 244.800 C 249.783 244.800,249.202 245.565,248.585 246.500 M153.000 247.873 C 151.395 249.321,152.013 249.013,154.131 247.309 C 154.753 246.809,155.113 246.407,154.931 246.415 C 154.749 246.423,153.880 247.080,153.000 247.873 M98.089 248.097 C 99.159 248.984,103.646 251.595,103.143 251.037 C 103.001 250.880,101.561 249.951,99.943 248.973 C 98.324 247.994,97.490 247.600,98.089 248.097 M181.473 249.638 C 180.677 250.979,180.260 251.883,180.545 251.645 C 181.090 251.193,183.371 247.200,183.085 247.200 C 182.994 247.200,182.269 248.297,181.473 249.638 M326.585 250.300 C 327.202 251.235,327.783 252.000,327.876 252.000 C 328.164 252.000,326.633 249.566,326.032 249.069 C 325.720 248.811,325.968 249.365,326.585 250.300 M245.385 251.300 C 244.768 252.235,244.520 252.789,244.832 252.531 C 245.433 252.034,246.964 249.600,246.676 249.600 C 246.583 249.600,246.002 250.365,245.385 251.300 M295.077 250.831 C 295.475 251.508,296.056 252.273,296.368 252.531 C 296.680 252.789,296.432 252.235,295.815 251.300 C 294.520 249.337,294.009 249.012,295.077 250.831 M328.402 252.633 C 328.403 252.835,328.868 253.540,329.435 254.200 L 330.466 255.400 329.563 254.000 C 328.404 252.204,328.400 252.199,328.402 252.633 M70.620 253.586 C 71.473 254.831,73.600 257.218,73.585 256.914 C 73.576 256.741,72.811 255.784,71.885 254.786 C 70.958 253.789,70.389 253.249,70.620 253.586 M213.200 254.000 C 212.730 254.660,212.436 255.200,212.546 255.200 C 212.656 255.200,213.130 254.660,213.600 254.000 C 214.070 253.340,214.364 252.800,214.254 252.800 C 214.144 252.800,213.670 253.340,213.200 254.000 M242.087 256.100 C 240.627 258.256,240.312 258.800,240.520 258.800 C 240.612 258.800,241.344 257.810,242.147 256.600 C 242.951 255.390,243.525 254.400,243.423 254.400 C 243.322 254.400,242.720 255.165,242.087 256.100 M114.400 255.200 C 114.950 255.376,115.760 255.520,116.200 255.520 C 116.833 255.520,116.792 255.454,116.000 255.200 C 115.450 255.024,114.640 254.880,114.200 254.880 C 113.567 254.880,113.608 254.946,114.400 255.200 M118.900 255.876 C 119.285 255.976,119.915 255.976,120.300 255.876 C 120.685 255.775,120.370 255.693,119.600 255.693 C 118.830 255.693,118.515 255.775,118.900 255.876 M132.100 255.876 C 132.485 255.976,133.115 255.976,133.500 255.876 C 133.885 255.775,133.570 255.693,132.800 255.693 C 132.030 255.693,131.715 255.775,132.100 255.876 M211.200 256.800 C 210.730 257.460,210.436 258.000,210.546 258.000 C 210.656 258.000,211.130 257.460,211.600 256.800 C 212.070 256.140,212.364 255.600,212.254 255.600 C 212.144 255.600,211.670 256.140,211.200 256.800 M331.808 257.558 C 332.615 258.681,333.357 259.600,333.457 259.600 C 333.732 259.600,331.252 256.080,330.766 255.779 C 330.532 255.635,331.001 256.435,331.808 257.558 M124.100 256.296 C 125.365 256.375,127.435 256.375,128.700 256.296 C 129.965 256.216,128.930 256.151,126.400 256.151 C 123.870 256.151,122.835 256.216,124.100 256.296 M75.200 259.000 C 75.946 259.770,76.647 260.400,76.757 260.400 C 76.867 260.400,76.346 259.770,75.600 259.000 C 74.854 258.230,74.153 257.600,74.043 257.600 C 73.933 257.600,74.454 258.230,75.200 259.000 M209.200 259.600 C 208.730 260.260,208.436 260.800,208.546 260.800 C 208.656 260.800,209.130 260.260,209.600 259.600 C 210.070 258.940,210.364 258.400,210.254 258.400 C 210.144 258.400,209.670 258.940,209.200 259.600 M170.778 262.300 L 169.400 263.800 170.996 262.400 C 171.873 261.630,172.668 260.955,172.762 260.900 C 172.856 260.845,172.759 260.800,172.545 260.800 C 172.332 260.800,171.537 261.475,170.778 262.300 M205.715 264.500 C 203.242 267.931,202.129 269.732,203.552 268.000 C 204.814 266.465,208.465 261.200,208.268 261.200 C 208.172 261.200,207.023 262.685,205.715 264.500 M236.400 264.600 C 235.719 265.590,235.252 266.400,235.362 266.400 C 235.472 266.400,236.119 265.590,236.800 264.600 C 237.481 263.610,237.948 262.800,237.838 262.800 C 237.728 262.800,237.081 263.610,236.400 264.600 M306.000 267.000 C 307.113 268.650,308.114 270.000,308.224 270.000 C 308.334 270.000,307.513 268.650,306.400 267.000 C 305.287 265.350,304.286 264.000,304.176 264.000 C 304.066 264.000,304.887 265.350,306.000 267.000 M165.800 266.079 C 163.384 267.848,163.135 268.294,165.400 266.794 C 167.836 265.182,167.771 265.234,167.567 265.054 C 167.475 264.973,166.680 265.435,165.800 266.079 M233.785 268.500 C 233.168 269.435,232.920 269.989,233.232 269.731 C 233.833 269.234,235.364 266.800,235.076 266.800 C 234.983 266.800,234.402 267.565,233.785 268.500 M161.900 268.629 C 160.405 269.440,160.496 269.778,162.000 269.000 C 162.660 268.659,163.200 268.294,163.200 268.190 C 163.200 267.932,163.157 267.947,161.900 268.629 M88.400 268.998 C 88.400 269.265,94.049 272.085,94.227 271.906 C 94.307 271.827,93.028 271.097,91.386 270.284 C 89.744 269.471,88.400 268.893,88.400 268.998 M157.600 271.000 C 156.610 271.530,155.942 271.972,156.116 271.982 C 156.541 272.006,159.600 270.434,159.600 270.192 C 159.600 269.927,159.617 269.920,157.600 271.000 M309.067 271.606 C 309.459 272.270,310.198 273.305,310.710 273.906 C 311.221 274.508,310.975 273.965,310.163 272.700 C 308.624 270.303,307.828 269.507,309.067 271.606 M200.400 272.000 C 199.930 272.660,199.636 273.200,199.746 273.200 C 199.856 273.200,200.330 272.660,200.800 272.000 C 201.270 271.340,201.564 270.800,201.454 270.800 C 201.344 270.800,200.870 271.340,200.400 272.000 M230.950 272.700 C 229.767 274.325,229.402 275.152,230.377 274.000 C 231.278 272.934,232.119 271.600,231.889 271.600 C 231.813 271.600,231.390 272.095,230.950 272.700 M154.000 272.600 C 153.450 272.914,153.180 273.172,153.400 273.172 C 153.620 273.172,154.250 272.914,154.800 272.600 C 155.350 272.286,155.620 272.028,155.400 272.028 C 155.180 272.028,154.550 272.286,154.000 272.600 M343.600 274.000 C 344.070 274.660,344.544 275.200,344.654 275.200 C 344.764 275.200,344.470 274.660,344.000 274.000 C 343.530 273.340,343.056 272.800,342.946 272.800 C 342.836 272.800,343.130 273.340,343.600 274.000 M147.400 274.800 C 146.896 275.017,146.822 275.144,147.200 275.144 C 147.530 275.144,148.160 274.989,148.600 274.800 C 149.104 274.583,149.178 274.456,148.800 274.456 C 148.470 274.456,147.840 274.611,147.400 274.800 M104.600 275.600 C 105.040 275.789,105.760 275.938,106.200 275.932 C 106.843 275.923,106.804 275.857,106.000 275.600 C 104.632 275.162,103.581 275.162,104.600 275.600 M144.400 275.600 C 143.596 275.857,143.557 275.923,144.200 275.932 C 144.640 275.938,145.360 275.789,145.800 275.600 C 146.819 275.162,145.768 275.162,144.400 275.600 M311.930 275.804 C 313.053 278.088,312.456 278.019,330.037 277.900 L 346.200 277.791 329.929 277.695 L 313.658 277.600 312.597 276.300 C 312.013 275.585,311.713 275.362,311.930 275.804 M138.000 276.800 C 136.650 277.084,136.643 277.095,137.800 277.100 C 138.460 277.103,139.540 276.968,140.200 276.800 C 141.860 276.378,140.007 276.378,138.000 276.800 M197.000 276.800 C 196.326 277.891,197.718 278.000,212.362 278.000 L 227.476 278.000 228.238 277.100 C 228.999 276.201,228.999 276.201,228.169 276.900 C 226.988 277.894,196.964 277.991,197.345 277.000 C 197.604 276.323,197.377 276.191,197.000 276.800 M115.905 277.483 C 116.402 277.579,117.122 277.575,117.505 277.475 C 117.887 277.375,117.480 277.296,116.600 277.301 C 115.720 277.305,115.407 277.387,115.905 277.483 M133.300 277.476 C 133.685 277.576,134.315 277.576,134.700 277.476 C 135.085 277.375,134.770 277.293,134.000 277.293 C 133.230 277.293,132.915 277.375,133.300 277.476 M122.518 277.898 C 124.233 277.973,126.933 277.972,128.518 277.897 C 130.103 277.821,128.700 277.759,125.400 277.760 C 122.100 277.761,120.803 277.822,122.518 277.898 " stroke="none" fill="#767676" fill-rule="evenodd"></path></g></svg>