<svg id="svg" version="1.1" xmlns="http://www.w3.org/2000/svg" xmlns:xlink="http://www.w3.org/1999/xlink" width="400" height="400" viewBox="0, 0, 400,400"><g id="svgg"><path id="path0" d="M185.500 33.670 C 152.928 35.145,107.429 42.754,85.462 50.400 C 70.112 55.743,57.772 69.802,54.244 85.967 C 53.155 90.958,51.307 110.522,50.463 126.000 C 45.689 213.567,77.726 285.241,143.884 335.002 C 160.086 347.190,179.727 358.500,196.230 365.148 C 200.497 366.867,199.837 366.984,209.125 362.874 C 253.372 343.294,293.534 307.905,317.788 267.125 C 346.009 219.676,355.018 167.087,347.104 96.000 C 344.243 70.303,332.356 55.584,309.125 48.970 C 269.477 37.682,223.246 31.961,185.500 33.670 M211.375 58.505 C 247.551 59.955,302.782 70.098,312.139 77.010 C 319.276 82.283,321.933 88.123,323.109 101.125 C 328.096 156.235,323.647 194.627,307.986 231.625 C 288.875 276.777,249.406 316.780,203.287 337.743 L 199.949 339.260 194.412 336.523 C 128.192 303.790,85.453 244.791,76.770 174.125 C 73.541 147.842,75.141 96.448,79.488 86.862 C 83.385 78.267,88.040 75.229,103.156 71.412 C 141.922 61.625,178.968 57.207,211.375 58.505 M197.312 85.763 C 163.047 117.583,144.122 168.911,151.634 209.647 C 155.888 232.713,170.287 256.644,190.169 273.693 L 191.706 275.012 195.789 262.756 C 198.034 256.015,199.929 250.500,200.000 250.500 C 200.071 250.500,201.966 256.016,204.212 262.757 L 208.294 275.014 210.460 273.034 C 243.854 242.502,255.800 207.503,247.250 165.250 C 242.068 139.644,229.296 114.889,210.361 93.750 C 207.283 90.314,200.394 83.500,199.998 83.500 C 199.861 83.500,198.652 84.518,197.312 85.763 " stroke="none" fill="#55b055" fill-rule="evenodd"></path><path id="path1" d="M195.811 262.690 L 191.750 274.881 191.750 287.440 L 191.750 300.000 200.000 300.000 L 208.250 300.000 208.250 287.440 L 208.250 274.881 204.189 262.690 C 201.956 255.986,200.071 250.500,200.000 250.500 C 199.929 250.500,198.044 255.986,195.811 262.690 " stroke="none" fill="#dcecc4" fill-rule="evenodd"></path><path id="path2" d="M301.375 46.750 C 301.650 46.868,302.044 46.965,302.250 46.965 C 302.486 46.965,302.440 46.885,302.125 46.750 C 301.850 46.632,301.456 46.535,301.250 46.535 C 301.014 46.535,301.060 46.615,301.375 46.750 M304.771 47.598 C 304.828 47.652,306.914 48.267,309.407 48.964 C 322.889 52.734,331.646 58.923,338.816 69.750 C 344.622 78.516,346.321 85.180,348.344 107.125 C 348.895 113.108,348.801 110.070,348.125 100.054 C 347.490 90.639,347.253 88.790,346.145 84.628 C 341.805 68.323,329.459 55.043,313.987 50.039 C 310.168 48.804,304.441 47.287,304.771 47.598 M191.625 58.511 C 164.181 59.229,134.509 63.603,102.621 71.630 C 88.207 75.258,83.656 78.231,79.750 86.566 C 77.268 91.861,75.553 110.585,75.096 137.375 C 73.813 212.569,102.368 272.565,159.750 315.238 C 173.674 325.593,198.032 339.594,200.721 338.788 C 207.410 336.784,229.848 323.564,241.875 314.541 C 298.027 272.413,326.212 212.270,324.900 137.375 C 324.412 109.518,322.802 92.794,320.042 86.904 C 315.921 78.110,311.639 75.225,297.375 71.632 C 266.654 63.894,236.319 59.308,211.375 58.631 C 200.959 58.348,198.433 58.333,191.625 58.511 M204.632 87.666 C 240.229 122.950,257.283 174.191,247.132 215.363 C 242.101 235.769,229.493 255.865,211.520 272.128 L 208.500 274.860 208.500 287.430 L 208.500 300.000 200.000 300.000 L 191.500 300.000 191.490 287.438 L 191.480 274.875 189.350 273.000 C 174.255 259.714,161.785 241.881,155.696 224.875 C 140.411 182.183,156.406 126.530,195.055 87.930 C 198.959 84.032,199.831 83.276,200.197 83.472 C 200.440 83.602,202.436 85.489,204.632 87.666 M348.822 112.625 C 348.823 113.313,348.872 113.564,348.929 113.184 C 348.987 112.804,348.985 112.242,348.926 111.934 C 348.867 111.627,348.820 111.938,348.822 112.625 M349.058 116.250 C 349.058 116.731,349.109 116.928,349.172 116.688 C 349.235 116.447,349.235 116.053,349.172 115.813 C 349.109 115.572,349.058 115.769,349.058 116.250 " stroke="none" fill="#5c4434" fill-rule="evenodd"></path><path id="path3" d="M195.063 33.437 C 197.778 33.478,202.222 33.478,204.938 33.437 C 207.653 33.397,205.431 33.364,200.000 33.364 C 194.569 33.364,192.347 33.397,195.063 33.437 M184.313 33.682 C 184.828 33.736,185.672 33.736,186.188 33.682 C 186.703 33.628,186.281 33.584,185.250 33.584 C 184.219 33.584,183.797 33.628,184.313 33.682 M213.813 33.682 C 214.328 33.736,215.172 33.736,215.688 33.682 C 216.203 33.628,215.781 33.584,214.750 33.584 C 213.719 33.584,213.297 33.628,213.813 33.682 M179.442 33.931 C 179.891 33.987,180.566 33.986,180.942 33.929 C 181.318 33.872,180.950 33.826,180.125 33.827 C 179.300 33.829,178.993 33.876,179.442 33.931 M219.192 33.931 C 219.641 33.987,220.316 33.986,220.692 33.929 C 221.068 33.872,220.700 33.826,219.875 33.827 C 219.050 33.829,218.743 33.876,219.192 33.931 M175.566 34.179 C 175.946 34.237,176.508 34.235,176.816 34.176 C 177.123 34.117,176.813 34.070,176.125 34.072 C 175.438 34.073,175.186 34.122,175.566 34.179 M223.316 34.179 C 223.696 34.237,224.258 34.235,224.566 34.176 C 224.873 34.117,224.563 34.070,223.875 34.072 C 223.188 34.073,222.936 34.122,223.316 34.179 M171.938 34.426 C 172.247 34.486,172.753 34.486,173.063 34.426 C 173.372 34.367,173.119 34.318,172.500 34.318 C 171.881 34.318,171.628 34.367,171.938 34.426 M226.938 34.426 C 227.247 34.486,227.753 34.486,228.063 34.426 C 228.372 34.367,228.119 34.318,227.500 34.318 C 226.881 34.318,226.628 34.367,226.938 34.426 M168.940 34.677 C 169.251 34.737,169.701 34.734,169.940 34.672 C 170.179 34.609,169.925 34.560,169.375 34.563 C 168.825 34.566,168.629 34.617,168.940 34.677 M230.190 34.677 C 230.501 34.737,230.951 34.734,231.190 34.672 C 231.429 34.609,231.175 34.560,230.625 34.563 C 230.075 34.566,229.879 34.617,230.190 34.677 M166.190 34.927 C 166.501 34.987,166.951 34.984,167.190 34.922 C 167.429 34.859,167.175 34.810,166.625 34.813 C 166.075 34.816,165.879 34.867,166.190 34.927 M233.063 34.922 C 233.303 34.985,233.697 34.985,233.938 34.922 C 234.178 34.859,233.981 34.808,233.500 34.808 C 233.019 34.808,232.822 34.859,233.063 34.922 M163.563 35.172 C 163.803 35.235,164.197 35.235,164.438 35.172 C 164.678 35.109,164.481 35.058,164.000 35.058 C 163.519 35.058,163.322 35.109,163.563 35.172 M235.563 35.172 C 235.803 35.235,236.197 35.235,236.438 35.172 C 236.678 35.109,236.481 35.058,236.000 35.058 C 235.519 35.058,235.322 35.109,235.563 35.172 M161.063 35.422 C 161.303 35.485,161.697 35.485,161.938 35.422 C 162.178 35.359,161.981 35.308,161.500 35.308 C 161.019 35.308,160.822 35.359,161.063 35.422 M238.063 35.422 C 238.303 35.485,238.697 35.485,238.938 35.422 C 239.178 35.359,238.981 35.308,238.500 35.308 C 238.019 35.308,237.822 35.359,238.063 35.422 M193.938 58.435 C 194.797 58.484,196.203 58.484,197.063 58.435 C 197.922 58.386,197.219 58.346,195.500 58.346 C 193.781 58.346,193.078 58.386,193.938 58.435 M202.938 58.435 C 203.797 58.484,205.203 58.484,206.063 58.435 C 206.922 58.386,206.219 58.346,204.500 58.346 C 202.781 58.346,202.078 58.386,202.938 58.435 M185.938 58.676 C 186.247 58.736,186.753 58.736,187.063 58.676 C 187.372 58.617,187.119 58.568,186.500 58.568 C 185.881 58.568,185.628 58.617,185.938 58.676 M212.938 58.676 C 213.247 58.736,213.753 58.736,214.063 58.676 C 214.372 58.617,214.119 58.568,213.500 58.568 C 212.881 58.568,212.628 58.617,212.938 58.676 M181.063 58.922 C 181.303 58.985,181.697 58.985,181.938 58.922 C 182.178 58.859,181.981 58.808,181.500 58.808 C 181.019 58.808,180.822 58.859,181.063 58.922 M218.063 58.922 C 218.303 58.985,218.697 58.985,218.938 58.922 C 219.178 58.859,218.981 58.808,218.500 58.808 C 218.019 58.808,217.822 58.859,218.063 58.922 M67.369 61.813 L 65.375 63.875 67.438 61.881 C 69.353 60.029,69.614 59.750,69.432 59.750 C 69.394 59.750,68.466 60.678,67.369 61.813 M58.375 74.000 C 58.162 74.412,58.043 74.750,58.112 74.750 C 58.181 74.750,58.412 74.412,58.625 74.000 C 58.838 73.588,58.957 73.250,58.888 73.250 C 58.819 73.250,58.588 73.588,58.375 74.000 M314.875 79.500 C 315.552 80.188,316.162 80.750,316.231 80.750 C 316.300 80.750,315.802 80.188,315.125 79.500 C 314.448 78.813,313.838 78.250,313.769 78.250 C 313.700 78.250,314.198 78.813,314.875 79.500 M205.250 88.375 C 206.136 89.269,206.917 90.000,206.986 90.000 C 207.054 90.000,206.386 89.269,205.500 88.375 C 204.614 87.481,203.833 86.750,203.764 86.750 C 203.696 86.750,204.364 87.481,205.250 88.375 M52.558 97.750 C 52.558 98.231,52.609 98.428,52.672 98.188 C 52.735 97.947,52.735 97.553,52.672 97.313 C 52.609 97.072,52.558 97.269,52.558 97.750 M52.308 100.000 C 52.308 100.481,52.359 100.678,52.422 100.438 C 52.485 100.197,52.485 99.803,52.422 99.563 C 52.359 99.322,52.308 99.519,52.308 100.000 M52.058 102.500 C 52.058 102.981,52.109 103.178,52.172 102.938 C 52.235 102.697,52.235 102.303,52.172 102.063 C 52.109 101.822,52.058 102.019,52.058 102.500 M51.813 105.125 C 51.816 105.675,51.867 105.871,51.927 105.560 C 51.987 105.249,51.984 104.799,51.922 104.560 C 51.859 104.321,51.810 104.575,51.813 105.125 M51.563 107.875 C 51.566 108.425,51.617 108.621,51.677 108.310 C 51.737 107.999,51.734 107.549,51.672 107.310 C 51.609 107.071,51.560 107.325,51.563 107.875 M51.318 111.000 C 51.318 111.619,51.367 111.872,51.426 111.563 C 51.486 111.253,51.486 110.747,51.426 110.438 C 51.367 110.128,51.318 110.381,51.318 111.000 M323.808 111.000 C 323.808 111.481,323.859 111.678,323.922 111.438 C 323.985 111.197,323.985 110.803,323.922 110.563 C 323.859 110.322,323.808 110.519,323.808 111.000 M51.068 114.250 C 51.068 114.869,51.117 115.122,51.176 114.813 C 51.236 114.503,51.236 113.997,51.176 113.688 C 51.117 113.378,51.068 113.631,51.068 114.250 M75.808 114.750 C 75.808 115.231,75.859 115.428,75.922 115.188 C 75.985 114.947,75.985 114.553,75.922 114.313 C 75.859 114.072,75.808 114.269,75.808 114.750 M324.063 114.875 C 324.066 115.425,324.117 115.621,324.177 115.310 C 324.237 114.999,324.234 114.549,324.172 114.310 C 324.109 114.071,324.060 114.325,324.063 114.875 M50.822 117.875 C 50.823 118.563,50.872 118.814,50.929 118.434 C 50.987 118.054,50.985 117.492,50.926 117.184 C 50.867 116.877,50.820 117.188,50.822 117.875 M349.063 117.875 C 349.066 118.425,349.117 118.621,349.177 118.310 C 349.237 117.999,349.234 117.549,349.172 117.310 C 349.109 117.071,349.060 117.325,349.063 117.875 M75.563 119.375 C 75.566 119.925,75.617 120.121,75.677 119.810 C 75.737 119.499,75.734 119.049,75.672 118.810 C 75.609 118.571,75.560 118.825,75.563 119.375 M324.313 119.375 C 324.316 119.925,324.367 120.121,324.427 119.810 C 324.487 119.499,324.484 119.049,324.422 118.810 C 324.359 118.571,324.310 118.825,324.313 119.375 M50.577 121.875 C 50.579 122.700,50.626 123.007,50.681 122.558 C 50.737 122.109,50.736 121.434,50.679 121.058 C 50.622 120.682,50.576 121.050,50.577 121.875 M349.325 121.750 C 349.325 122.506,349.372 122.816,349.429 122.438 C 349.486 122.059,349.486 121.441,349.429 121.063 C 349.372 120.684,349.325 120.994,349.325 121.750 M75.318 124.750 C 75.318 125.369,75.367 125.622,75.426 125.313 C 75.486 125.003,75.486 124.497,75.426 124.188 C 75.367 123.878,75.318 124.131,75.318 124.750 M324.572 124.875 C 324.573 125.563,324.622 125.814,324.679 125.434 C 324.737 125.054,324.735 124.492,324.676 124.184 C 324.617 123.877,324.570 124.188,324.572 124.875 M349.582 126.625 C 349.583 127.588,349.628 127.951,349.682 127.432 C 349.737 126.913,349.736 126.126,349.680 125.682 C 349.625 125.238,349.581 125.662,349.582 126.625 M50.330 127.000 C 50.330 127.894,50.375 128.259,50.431 127.813 C 50.486 127.366,50.486 126.634,50.431 126.188 C 50.375 125.741,50.330 126.106,50.330 127.000 M75.087 133.000 C 75.087 134.169,75.130 134.647,75.183 134.063 C 75.236 133.478,75.236 132.522,75.183 131.938 C 75.130 131.353,75.087 131.831,75.087 133.000 M324.839 133.125 C 324.838 134.363,324.880 134.900,324.933 134.320 C 324.985 133.740,324.986 132.727,324.934 132.070 C 324.882 131.413,324.840 131.887,324.839 133.125 M349.842 133.750 C 349.842 135.194,349.884 135.784,349.934 135.063 C 349.985 134.341,349.985 133.159,349.934 132.438 C 349.884 131.716,349.842 132.306,349.842 133.750 M50.092 134.000 C 50.092 135.444,50.134 136.034,50.184 135.313 C 50.235 134.591,50.235 133.409,50.184 132.688 C 50.134 131.966,50.092 132.556,50.092 134.000 M324.830 152.000 C 324.830 152.894,324.875 153.259,324.931 152.813 C 324.986 152.366,324.986 151.634,324.931 151.188 C 324.875 150.741,324.830 151.106,324.830 152.000 M349.842 153.000 C 349.842 154.444,349.884 155.034,349.934 154.313 C 349.985 153.591,349.985 152.409,349.934 151.688 C 349.884 150.966,349.842 151.556,349.842 153.000 M50.091 153.125 C 50.092 154.500,50.134 155.031,50.185 154.304 C 50.235 153.578,50.235 152.453,50.183 151.804 C 50.132 151.156,50.091 151.750,50.091 153.125 M75.077 152.125 C 75.079 152.950,75.126 153.257,75.181 152.808 C 75.237 152.359,75.236 151.684,75.179 151.308 C 75.122 150.932,75.076 151.300,75.077 152.125 M75.313 157.875 C 75.316 158.425,75.367 158.621,75.427 158.310 C 75.487 157.999,75.484 157.549,75.422 157.310 C 75.359 157.071,75.310 157.325,75.313 157.875 M324.558 158.000 C 324.558 158.481,324.609 158.678,324.672 158.438 C 324.735 158.197,324.735 157.803,324.672 157.563 C 324.609 157.322,324.558 157.519,324.558 158.000 M50.327 159.125 C 50.329 159.950,50.376 160.257,50.431 159.808 C 50.487 159.359,50.486 158.684,50.429 158.308 C 50.372 157.932,50.326 158.300,50.327 159.125 M349.577 159.125 C 349.579 159.950,349.626 160.257,349.681 159.808 C 349.737 159.359,349.736 158.684,349.679 158.308 C 349.622 157.932,349.576 158.300,349.577 159.125 M50.572 163.375 C 50.573 164.063,50.622 164.314,50.679 163.934 C 50.737 163.554,50.735 162.992,50.676 162.684 C 50.617 162.377,50.570 162.688,50.572 163.375 M349.318 163.250 C 349.318 163.869,349.367 164.122,349.426 163.813 C 349.486 163.503,349.486 162.997,349.426 162.688 C 349.367 162.378,349.318 162.631,349.318 163.250 M50.813 166.625 C 50.816 167.175,50.867 167.371,50.927 167.060 C 50.987 166.749,50.984 166.299,50.922 166.060 C 50.859 165.821,50.810 166.075,50.813 166.625 M349.063 166.625 C 349.066 167.175,349.117 167.371,349.177 167.060 C 349.237 166.749,349.234 166.299,349.172 166.060 C 349.109 165.821,349.060 166.075,349.063 166.625 M51.058 169.500 C 51.058 169.981,51.109 170.178,51.172 169.938 C 51.235 169.697,51.235 169.303,51.172 169.063 C 51.109 168.822,51.058 169.019,51.058 169.500 M348.808 169.500 C 348.808 169.981,348.859 170.178,348.922 169.938 C 348.985 169.697,348.985 169.303,348.922 169.063 C 348.859 168.822,348.808 169.019,348.808 169.500 M51.558 174.500 C 51.558 174.981,51.609 175.178,51.672 174.938 C 51.735 174.697,51.735 174.303,51.672 174.063 C 51.609 173.822,51.558 174.019,51.558 174.500 M348.308 174.500 C 348.308 174.981,348.359 175.178,348.422 174.938 C 348.485 174.697,348.485 174.303,348.422 174.063 C 348.359 173.822,348.308 174.019,348.308 174.500 M249.825 186.500 C 249.825 187.256,249.872 187.566,249.929 187.188 C 249.986 186.809,249.986 186.191,249.929 185.813 C 249.872 185.434,249.825 185.744,249.825 186.500 M249.818 196.250 C 249.818 196.869,249.867 197.122,249.926 196.813 C 249.986 196.503,249.986 195.997,249.926 195.688 C 249.867 195.378,249.818 195.631,249.818 196.250 M216.122 267.563 L 212.625 271.125 216.188 267.628 C 218.147 265.705,219.750 264.102,219.750 264.066 C 219.750 263.887,219.370 264.253,216.122 267.563 M269.487 289.938 L 268.625 290.875 269.563 290.013 C 270.435 289.212,270.615 289.000,270.424 289.000 C 270.382 289.000,269.960 289.422,269.487 289.938 M134.750 293.875 C 136.740 295.869,138.425 297.500,138.494 297.500 C 138.562 297.500,136.990 295.869,135.000 293.875 C 133.010 291.881,131.325 290.250,131.256 290.250 C 131.188 290.250,132.760 291.881,134.750 293.875 M260.737 298.688 L 259.875 299.625 260.813 298.763 C 261.328 298.290,261.750 297.868,261.750 297.826 C 261.750 297.635,261.538 297.815,260.737 298.688 M104.750 298.828 C 104.750 298.871,105.116 299.237,105.563 299.641 L 106.375 300.375 105.641 299.563 C 104.956 298.805,104.750 298.635,104.750 298.828 M294.359 299.563 L 293.625 300.375 294.438 299.641 C 295.195 298.956,295.365 298.750,295.172 298.750 C 295.129 298.750,294.763 299.116,294.359 299.563 M106.500 300.828 C 106.500 300.871,106.866 301.237,107.313 301.641 L 108.125 302.375 107.391 301.563 C 106.706 300.805,106.500 300.635,106.500 300.828 M292.487 301.688 L 291.625 302.625 292.563 301.763 C 293.435 300.962,293.615 300.750,293.424 300.750 C 293.382 300.750,292.960 301.172,292.487 301.688 M109.375 304.000 C 109.912 304.550,110.408 305.000,110.476 305.000 C 110.545 305.000,110.162 304.550,109.625 304.000 C 109.088 303.450,108.592 303.000,108.524 303.000 C 108.455 303.000,108.838 303.450,109.375 304.000 M290.363 304.063 L 289.375 305.125 290.438 304.137 C 291.426 303.218,291.615 303.000,291.426 303.000 C 291.385 303.000,290.907 303.478,290.363 304.063 M113.375 308.250 C 114.745 309.625,115.922 310.750,115.991 310.750 C 116.059 310.750,114.995 309.625,113.625 308.250 C 112.255 306.875,111.078 305.750,111.009 305.750 C 110.941 305.750,112.005 306.875,113.375 308.250 M286.246 308.438 L 283.625 311.125 286.313 308.504 C 287.791 307.063,289.000 305.854,289.000 305.817 C 289.000 305.636,288.680 305.941,286.246 308.438 M120.750 315.625 C 121.913 316.794,122.920 317.750,122.989 317.750 C 123.058 317.750,122.163 316.794,121.000 315.625 C 119.837 314.456,118.830 313.500,118.761 313.500 C 118.692 313.500,119.587 314.456,120.750 315.625 M278.994 315.688 L 276.875 317.875 279.063 315.756 C 280.266 314.590,281.250 313.605,281.250 313.568 C 281.250 313.386,280.963 313.656,278.994 315.688 M124.875 319.500 C 125.412 320.050,125.908 320.500,125.976 320.500 C 126.045 320.500,125.662 320.050,125.125 319.500 C 124.588 318.950,124.092 318.500,124.024 318.500 C 123.955 318.500,124.338 318.950,124.875 319.500 M274.863 319.563 L 273.875 320.625 274.938 319.637 C 275.926 318.718,276.115 318.500,275.926 318.500 C 275.885 318.500,275.407 318.978,274.863 319.563 M127.500 321.875 C 127.966 322.356,128.404 322.750,128.473 322.750 C 128.542 322.750,128.216 322.356,127.750 321.875 C 127.284 321.394,126.846 321.000,126.777 321.000 C 126.708 321.000,127.034 321.394,127.500 321.875 M272.237 321.938 L 271.375 322.875 272.313 322.013 C 273.185 321.212,273.365 321.000,273.174 321.000 C 273.132 321.000,272.710 321.422,272.237 321.938 M179.750 357.624 C 179.750 357.790,184.780 360.303,184.891 360.192 C 184.940 360.144,183.803 359.519,182.365 358.803 C 180.927 358.088,179.750 357.558,179.750 357.624 M217.500 358.875 C 216.056 359.617,214.961 360.230,215.067 360.237 C 215.333 360.255,220.250 357.774,220.250 357.623 C 220.250 357.452,220.403 357.383,217.500 358.875 " stroke="none" fill="#538c4c" fill-rule="evenodd"></path><path id="path4" d="M196.609 86.313 L 195.875 87.125 196.688 86.391 C 197.134 85.987,197.500 85.621,197.500 85.578 C 197.500 85.385,197.294 85.555,196.609 86.313 M192.487 90.438 L 191.625 91.375 192.563 90.513 C 193.435 89.712,193.615 89.500,193.424 89.500 C 193.382 89.500,192.960 89.922,192.487 90.438 M191.616 287.500 C 191.616 294.444,191.648 297.284,191.687 293.813 C 191.727 290.341,191.727 284.659,191.687 281.188 C 191.648 277.716,191.616 280.556,191.616 287.500 M208.366 287.500 C 208.366 294.444,208.398 297.284,208.437 293.813 C 208.477 290.341,208.477 284.659,208.437 281.188 C 208.398 277.716,208.366 280.556,208.366 287.500 " stroke="none" fill="#7c7c5c" fill-rule="evenodd"></path></g></svg>