<svg id="svg" version="1.1" xmlns="http://www.w3.org/2000/svg" xmlns:xlink="http://www.w3.org/1999/xlink" width="400" height="225.54112554112555" viewBox="0, 0, 400,225.54112554112555"><g id="svgg"><path id="path0" d="M155.668 110.434 L 155.668 124.986 167.816 124.986 C 182.100 124.986,180.711 124.667,180.711 127.945 L 180.711 130.078 182.471 130.055 C 183.438 130.042,184.345 129.961,184.485 129.874 C 184.626 129.787,184.788 129.794,184.847 129.889 C 184.978 130.101,189.308 130.100,189.651 129.888 C 189.787 129.804,189.966 129.804,190.050 129.888 C 190.262 130.100,194.717 130.101,194.848 129.889 C 194.907 129.794,195.072 129.789,195.216 129.877 C 195.608 130.120,198.800 130.115,199.372 129.871 C 199.835 129.674,199.877 129.487,199.936 127.378 L 200.000 125.099 222.279 125.041 L 244.557 124.984 244.557 110.433 L 244.557 95.883 200.113 95.883 L 155.668 95.883 155.668 110.434 M180.298 100.317 C 180.903 100.865,180.940 119.846,180.337 120.512 C 179.846 121.055,175.692 121.128,175.167 120.603 C 174.901 120.337,174.845 119.015,174.845 113.045 L 174.845 105.809 172.702 105.809 L 170.558 105.809 170.558 113.096 C 170.558 118.463,170.487 120.455,170.288 120.654 C 169.822 121.120,160.894 121.028,160.367 120.552 C 159.762 120.004,159.726 101.022,160.328 100.356 C 160.876 99.751,179.632 99.714,180.298 100.317 M204.979 100.266 C 205.460 100.747,205.460 120.122,204.979 120.603 C 204.721 120.861,203.738 120.925,200.016 120.925 L 195.375 120.925 195.375 123.294 L 195.375 125.663 190.073 125.663 L 184.772 125.663 184.772 113.132 C 184.772 103.429,184.835 100.529,185.054 100.281 C 185.476 99.802,204.501 99.787,204.979 100.266 M239.633 100.317 C 240.238 100.865,240.274 119.846,239.672 120.512 C 239.349 120.869,234.841 121.185,234.585 120.869 C 234.560 120.838,234.484 117.462,234.416 113.367 L 234.292 105.922 232.092 105.858 L 229.893 105.793 229.893 113.088 C 229.893 118.462,229.822 120.455,229.622 120.654 C 229.394 120.882,224.837 121.079,224.655 120.869 C 224.628 120.838,224.552 117.462,224.486 113.367 L 224.365 105.922 222.482 105.856 C 219.758 105.761,219.966 105.118,219.966 113.620 L 219.966 120.925 215.077 120.925 C 210.844 120.925,210.132 120.875,209.775 120.552 C 209.170 120.004,209.133 101.022,209.736 100.356 C 210.286 99.749,238.963 99.711,239.633 100.317 M195.375 110.434 L 195.375 115.059 197.406 115.059 L 199.436 115.059 199.436 110.434 L 199.436 105.809 197.406 105.809 L 195.375 105.809 195.375 110.434 " stroke="none" fill="#fcfcfc" fill-rule="evenodd"></path><path id="path1" d="M155.590 95.601 C 155.533 95.694,175.517 95.770,200.000 95.770 C 224.483 95.770,244.467 95.694,244.410 95.601 C 244.273 95.379,155.727 95.379,155.590 95.601 M160.462 100.319 C 159.985 100.511,160.059 120.379,160.537 120.562 C 161.247 120.835,170.002 120.715,170.288 120.429 C 170.487 120.229,170.558 118.263,170.558 112.984 L 170.558 105.809 172.702 105.809 L 174.845 105.809 174.845 112.984 C 174.845 118.263,174.916 120.229,175.116 120.429 C 175.528 120.841,179.898 120.796,180.246 120.377 C 180.512 120.056,180.660 112.001,180.405 111.745 C 180.342 111.682,180.290 113.532,180.290 115.856 C 180.290 120.817,180.469 120.508,177.645 120.426 L 175.409 120.361 175.296 113.029 L 175.183 105.697 172.702 105.697 L 170.220 105.697 170.160 113.090 L 170.101 120.483 165.310 120.422 L 160.519 120.361 160.519 110.434 L 160.519 100.508 170.220 100.448 C 179.140 100.394,179.944 100.420,180.203 100.773 C 180.358 100.985,180.485 101.057,180.485 100.934 C 180.485 100.208,179.964 100.169,170.344 100.187 C 165.064 100.197,160.618 100.256,160.462 100.319 M185.150 100.317 C 185.066 100.401,184.997 106.138,184.997 113.066 L 184.997 125.663 190.049 125.663 C 195.907 125.663,195.375 125.946,195.375 122.829 L 195.375 120.708 200.169 120.647 L 204.963 120.587 204.963 110.434 L 204.963 100.282 195.133 100.223 C 189.726 100.191,185.234 100.233,185.150 100.317 M209.859 100.440 C 209.470 100.829,209.470 120.039,209.859 120.429 C 210.163 120.733,219.966 120.831,219.966 120.530 C 219.966 120.437,217.707 120.361,214.947 120.361 L 209.927 120.361 209.927 110.434 L 209.927 100.508 224.704 100.508 L 239.481 100.508 239.481 110.434 L 239.481 120.361 237.056 120.361 C 235.722 120.361,234.630 120.437,234.630 120.530 C 234.631 120.731,238.947 120.760,239.463 120.562 C 240.007 120.354,240.007 100.515,239.463 100.306 C 238.727 100.024,210.146 100.153,209.859 100.440 M204.738 110.434 L 204.738 120.361 200.000 120.474 L 195.262 120.587 195.149 122.955 L 195.037 125.324 190.130 125.385 L 185.223 125.446 185.223 113.071 C 185.223 106.264,185.292 100.627,185.376 100.543 C 185.460 100.459,189.850 100.416,195.133 100.449 L 204.738 100.508 204.738 110.434 M180.327 102.425 C 180.327 103.108,180.369 103.387,180.421 103.046 C 180.473 102.704,180.473 102.146,180.421 101.805 C 180.369 101.464,180.327 101.743,180.327 102.425 M180.318 105.067 C 180.320 105.785,180.389 106.183,180.472 105.950 C 180.625 105.524,180.578 104.023,180.408 103.852 C 180.357 103.801,180.317 104.348,180.318 105.067 M195.149 110.411 C 195.149 115.998,194.864 115.471,197.857 115.426 L 199.774 115.398 199.774 110.547 L 199.774 105.697 197.462 105.632 L 195.149 105.568 195.149 110.411 M220.124 105.727 C 220.037 105.813,219.966 105.989,219.966 106.118 C 219.966 106.257,220.075 106.242,220.237 106.080 C 220.609 105.708,224.065 105.718,224.461 106.091 C 224.703 106.319,224.740 106.308,224.657 106.035 C 224.548 105.675,220.454 105.397,220.124 105.727 M229.777 105.858 C 229.717 106.017,229.643 109.346,229.611 113.254 L 229.554 120.361 227.129 120.361 C 225.795 120.361,224.703 120.437,224.704 120.530 C 224.704 120.731,229.021 120.760,229.536 120.562 C 229.851 120.441,229.893 119.573,229.893 113.117 L 229.893 105.809 231.991 105.809 C 233.360 105.809,234.193 105.907,234.388 106.091 C 234.629 106.319,234.667 106.308,234.584 106.035 C 234.444 105.574,229.944 105.409,229.777 105.858 M199.610 110.486 L 199.549 115.162 197.518 115.167 L 195.488 115.172 195.427 110.491 L 195.366 105.809 197.518 105.809 L 199.671 105.809 199.610 110.486 M180.327 107.614 C 180.327 108.297,180.369 108.576,180.421 108.235 C 180.473 107.893,180.473 107.335,180.421 106.994 C 180.369 106.653,180.327 106.932,180.327 107.614 M180.318 110.256 C 180.320 110.974,180.389 111.372,180.472 111.139 C 180.625 110.713,180.578 109.212,180.408 109.041 C 180.357 108.990,180.317 109.537,180.318 110.256 M155.590 125.268 C 155.648 125.361,161.100 125.437,167.706 125.437 C 181.589 125.437,180.259 125.146,180.259 128.182 L 180.259 130.386 189.671 130.385 C 201.322 130.384,200.113 130.686,200.113 127.782 L 200.113 125.437 222.209 125.437 C 234.362 125.437,244.352 125.361,244.410 125.268 C 244.467 125.175,234.499 125.149,222.257 125.212 L 200.000 125.324 199.936 127.637 C 199.891 129.242,199.788 129.960,199.597 129.983 C 199.447 130.002,195.085 130.037,189.904 130.061 L 180.485 130.104 180.485 127.911 C 180.485 126.360,180.397 125.645,180.185 125.469 C 179.839 125.182,155.414 124.983,155.590 125.268 " stroke="none" fill="#e49c94" fill-rule="evenodd"></path><path id="path2" d="M150.185 62.637 C 150.106 62.716,150.094 62.869,150.160 62.976 C 150.367 63.310,250.027 63.223,249.915 62.888 C 249.815 62.585,150.487 62.335,150.185 62.637 M155.488 95.476 C 155.201 95.763,155.071 124.569,155.354 125.306 C 155.477 125.626,156.744 125.657,167.706 125.609 L 179.921 125.556 167.738 125.440 L 155.556 125.324 155.556 110.434 L 155.556 95.544 200.000 95.544 L 244.444 95.544 244.444 110.434 L 244.444 125.324 222.222 125.439 L 200.000 125.554 222.335 125.552 L 244.670 125.550 244.670 110.434 L 244.670 95.319 200.215 95.262 C 165.825 95.218,155.698 95.266,155.488 95.476 M160.509 100.677 C 160.450 100.832,160.428 105.324,160.460 110.660 L 160.519 120.361 165.313 120.368 L 170.107 120.375 165.370 120.307 L 160.632 120.239 160.632 110.430 L 160.632 100.620 170.333 100.620 L 180.034 100.620 180.034 110.434 L 180.034 120.248 177.778 120.248 L 175.522 120.248 175.522 112.952 L 175.522 105.656 174.941 105.391 C 174.621 105.246,174.241 105.202,174.095 105.294 C 173.933 105.396,174.095 105.508,174.506 105.581 L 175.183 105.701 175.296 113.031 L 175.409 120.361 177.645 120.426 C 178.875 120.462,179.974 120.399,180.087 120.286 C 180.327 120.045,180.403 101.036,180.166 100.651 C 179.926 100.263,160.658 100.288,160.509 100.677 M185.376 100.543 C 185.292 100.627,185.223 106.264,185.223 113.071 L 185.223 125.446 190.130 125.385 L 195.037 125.324 195.149 122.955 L 195.262 120.587 200.000 120.474 L 204.738 120.361 204.738 110.434 L 204.738 100.508 195.133 100.449 C 189.850 100.416,185.460 100.459,185.376 100.543 M209.918 100.675 C 209.858 100.831,209.835 105.324,209.868 110.660 L 209.927 120.361 214.890 120.361 L 219.853 120.361 219.966 113.031 L 220.079 105.701 220.756 105.581 C 221.168 105.508,221.329 105.396,221.167 105.294 C 221.022 105.202,220.641 105.246,220.321 105.391 L 219.741 105.656 219.741 112.952 L 219.741 120.248 214.890 120.248 L 210.039 120.248 210.039 110.434 L 210.039 100.620 224.704 100.620 L 239.368 100.620 239.368 110.434 L 239.368 120.248 237.112 120.248 L 234.856 120.248 234.856 113.056 C 234.856 107.572,234.789 105.812,234.574 105.643 C 234.177 105.331,232.633 105.122,232.486 105.360 C 232.419 105.469,232.848 105.590,233.441 105.628 L 234.518 105.697 234.631 113.029 L 234.743 120.361 237.112 120.361 L 239.481 120.361 239.481 110.434 L 239.481 100.508 224.754 100.450 C 213.092 100.404,210.004 100.451,209.918 100.675 M204.625 110.434 L 204.625 120.248 199.932 120.248 C 194.348 120.248,194.698 120.064,194.698 123.001 L 194.698 125.212 190.073 125.212 L 185.448 125.212 185.448 112.916 L 185.448 100.620 195.037 100.620 L 204.625 100.620 204.625 110.434 M195.072 105.545 C 194.750 105.900,194.698 106.588,194.698 110.473 C 194.698 116.046,194.543 115.782,197.771 115.688 L 200.000 115.623 200.061 110.688 C 200.133 104.822,200.292 105.150,197.384 105.140 C 195.786 105.134,195.379 105.205,195.072 105.545 M221.645 105.380 C 221.582 105.481,222.220 105.593,223.061 105.630 L 224.591 105.697 224.704 113.029 L 224.817 120.361 227.186 120.361 L 229.554 120.361 229.667 113.029 L 229.780 105.697 231.021 105.564 C 232.329 105.424,232.329 105.331,231.021 105.266 C 229.411 105.187,229.442 105.034,229.442 113.064 L 229.442 120.248 227.186 120.248 L 224.929 120.248 224.926 113.085 C 224.924 109.146,224.842 105.795,224.743 105.639 C 224.541 105.321,221.822 105.094,221.645 105.380 M171.066 105.520 C 171.407 105.571,171.966 105.571,172.307 105.520 C 172.648 105.468,172.369 105.426,171.686 105.426 C 171.004 105.426,170.725 105.468,171.066 105.520 M199.774 110.547 L 199.774 115.398 197.857 115.426 C 194.864 115.471,195.149 115.998,195.149 110.411 L 195.149 105.568 197.462 105.632 L 199.774 105.697 199.774 110.547 M180.117 128.144 C 180.117 129.447,180.155 129.980,180.200 129.329 C 180.246 128.677,180.246 127.611,180.200 126.960 C 180.155 126.309,180.117 126.842,180.117 128.144 M200.113 128.083 C 200.113 129.850,200.057 130.158,199.718 130.256 C 199.490 130.323,199.561 130.353,199.887 130.329 C 200.506 130.284,200.900 126.811,200.348 126.259 C 200.185 126.096,200.113 126.653,200.113 128.083 M184.204 130.408 C 183.879 130.526,183.989 130.572,184.602 130.576 C 185.068 130.579,185.448 130.552,185.448 130.517 C 185.448 130.340,184.596 130.265,184.204 130.408 M189.393 130.408 C 189.068 130.526,189.178 130.572,189.791 130.576 C 190.257 130.579,190.637 130.552,190.637 130.517 C 190.637 130.340,189.785 130.265,189.393 130.408 M194.582 130.408 C 194.257 130.526,194.367 130.572,194.980 130.576 C 195.446 130.579,195.826 130.552,195.826 130.517 C 195.826 130.340,194.974 130.265,194.582 130.408 M181.669 130.556 C 181.887 130.613,182.242 130.613,182.459 130.556 C 182.676 130.499,182.499 130.453,182.064 130.453 C 181.630 130.453,181.452 130.499,181.669 130.556 M186.858 130.556 C 187.076 130.613,187.431 130.613,187.648 130.556 C 187.865 130.499,187.688 130.453,187.253 130.453 C 186.819 130.453,186.641 130.499,186.858 130.556 M192.047 130.556 C 192.265 130.613,192.620 130.613,192.837 130.556 C 193.054 130.499,192.876 130.453,192.442 130.453 C 192.008 130.453,191.830 130.499,192.047 130.556 M197.236 130.556 C 197.453 130.613,197.809 130.613,198.026 130.556 C 198.243 130.499,198.065 130.453,197.631 130.453 C 197.197 130.453,197.019 130.499,197.236 130.556 " stroke="none" fill="#d45454" fill-rule="evenodd"></path><path id="path3" d="M149.577 112.706 C 149.577 155.924,149.622 162.965,149.899 163.242 C 150.385 163.728,249.615 163.728,250.101 163.242 C 250.595 162.748,250.586 62.493,250.092 62.493 C 249.890 62.493,249.811 62.625,249.890 62.832 C 250.006 63.133,244.427 63.164,200.081 63.114 C 160.274 63.069,150.152 63.000,150.197 62.775 C 150.228 62.620,150.102 62.493,149.915 62.493 C 149.616 62.493,149.577 68.223,149.577 112.706 M244.670 110.434 L 244.670 125.550 222.391 125.607 C 201.673 125.661,199.521 125.721,200.338 126.227 C 200.678 126.436,200.627 130.107,200.282 130.331 C 199.980 130.526,181.092 130.670,180.429 130.482 C 180.085 130.385,180.034 130.065,180.034 128.016 L 180.034 125.663 167.762 125.663 C 156.781 125.663,155.477 125.625,155.354 125.306 C 155.071 124.569,155.201 95.763,155.488 95.476 C 155.698 95.266,165.825 95.218,200.215 95.262 L 244.670 95.319 244.670 110.434 M160.632 110.434 L 160.632 120.248 165.369 120.248 L 170.107 120.248 170.107 112.931 C 170.107 104.649,169.956 105.259,171.982 105.384 C 172.512 105.416,173.061 105.372,173.203 105.284 C 173.344 105.197,173.527 105.233,173.609 105.365 C 173.713 105.535,173.843 105.534,174.050 105.362 C 174.261 105.188,174.509 105.195,174.932 105.388 L 175.522 105.656 175.522 112.952 L 175.522 120.248 177.778 120.248 L 180.034 120.248 180.034 110.434 L 180.034 100.620 170.333 100.620 L 160.632 100.620 160.632 110.434 M185.448 112.916 L 185.448 125.212 190.073 125.212 L 194.698 125.212 194.698 123.001 C 194.698 120.064,194.348 120.248,199.932 120.248 L 204.625 120.248 204.625 110.434 L 204.625 100.620 195.037 100.620 L 185.448 100.620 185.448 112.916 M210.039 110.434 L 210.039 120.248 214.890 120.248 L 219.741 120.248 219.741 112.952 L 219.741 105.656 220.330 105.388 C 220.753 105.195,221.002 105.188,221.212 105.362 C 221.380 105.501,221.559 105.518,221.631 105.402 C 221.818 105.100,224.532 105.307,224.743 105.639 C 224.842 105.795,224.924 109.146,224.926 113.085 L 224.929 120.248 227.186 120.248 L 229.442 120.248 229.442 113.064 C 229.442 106.496,229.476 105.851,229.836 105.553 C 230.248 105.213,231.616 105.134,232.077 105.424 C 232.223 105.516,232.403 105.495,232.476 105.377 C 232.631 105.126,234.164 105.320,234.574 105.643 C 234.789 105.812,234.856 107.572,234.856 113.056 L 234.856 120.248 237.112 120.248 L 239.368 120.248 239.368 110.434 L 239.368 100.620 224.704 100.620 L 210.039 100.620 210.039 110.434 M199.722 105.450 C 200.086 105.726,200.116 106.189,200.061 110.688 L 200.000 115.623 197.771 115.688 C 194.543 115.782,194.698 116.046,194.698 110.473 C 194.698 104.924,194.595 105.129,197.384 105.140 C 198.648 105.144,199.462 105.252,199.722 105.450 " stroke="none" fill="#cc3c34" fill-rule="evenodd"></path><path id="path4" d="" stroke="none" fill="#e4100cc" fill-rule="evenodd"></path></g></svg>