<svg id="svg" version="1.1" xmlns="http://www.w3.org/2000/svg" xmlns:xlink="http://www.w3.org/1999/xlink" width="400" height="266.6666666666667" viewBox="0, 0, 400,266.6666666666667"><g id="svgg"><path id="path0" d="M25.762 75.088 C 25.567 75.596,25.541 164.337,25.736 164.845 C 25.849 165.138,29.381 165.177,45.936 165.067 L 66.000 164.933 66.133 132.045 C 66.264 99.878,66.278 99.149,66.784 98.778 C 67.655 98.142,90.928 98.224,91.707 98.867 L 92.273 99.333 92.336 132.133 L 92.400 164.933 100.067 165.004 L 107.735 165.075 107.667 119.937 L 107.600 74.800 66.762 74.732 C 29.696 74.671,25.909 74.704,25.762 75.088 M134.467 74.855 L 133.867 74.970 133.867 132.552 L 133.867 190.133 153.600 190.178 C 164.453 190.202,173.543 190.232,173.800 190.244 C 174.236 190.265,174.275 189.469,174.400 178.080 C 174.504 168.579,174.610 165.816,174.880 165.546 C 175.157 165.270,179.301 165.186,195.488 165.128 L 215.750 165.057 216.008 164.378 C 216.545 162.968,216.340 75.448,215.800 75.038 C 215.352 74.697,136.208 74.519,134.467 74.855 M242.800 74.962 C 242.138 75.285,242.076 164.428,242.738 164.851 C 242.919 164.966,251.947 165.032,262.800 164.997 L 282.533 164.933 282.667 132.008 L 282.800 99.082 283.467 98.745 C 284.561 98.191,307.409 98.256,308.207 98.815 L 308.800 99.230 308.800 132.010 L 308.800 164.790 309.400 164.936 C 309.730 165.016,315.160 165.048,321.467 165.007 L 332.933 164.933 333.067 131.924 C 333.184 102.969,333.249 98.883,333.600 98.661 C 334.423 98.141,357.728 98.334,358.374 98.867 L 358.939 99.333 359.003 132.133 L 359.067 164.933 366.597 165.067 C 372.716 165.175,374.153 165.133,374.264 164.845 C 374.459 164.337,374.433 75.596,374.238 75.088 C 374.045 74.586,243.829 74.461,242.800 74.962 M199.947 98.720 C 200.478 99.252,200.402 140.622,199.869 141.065 C 199.066 141.731,175.440 141.447,174.867 140.764 C 174.167 139.930,174.142 99.660,174.841 98.888 C 175.395 98.276,199.343 98.116,199.947 98.720 " stroke="none" fill="#fbf9f9" fill-rule="evenodd"></path><path id="path1" d="M25.566 74.308 C 24.980 75.013,24.887 164.352,25.471 165.243 L 25.879 165.867 45.854 165.867 C 63.657 165.867,65.874 165.821,66.248 165.448 C 66.698 164.997,66.666 168.562,66.678 117.200 C 66.681 108.253,66.774 100.513,66.886 100.000 L 67.089 99.067 79.122 99.067 C 85.741 99.067,91.256 99.167,91.378 99.289 C 91.500 99.411,91.632 114.224,91.671 132.206 C 91.736 162.067,91.780 164.942,92.179 165.384 C 92.886 166.165,107.213 166.120,108.000 165.333 C 108.731 164.602,108.855 76.062,108.126 74.653 L 107.720 73.867 66.826 73.867 C 29.113 73.867,25.904 73.901,25.566 74.308 M133.643 74.546 C 133.150 75.626,133.201 189.959,133.694 190.368 C 134.224 190.807,174.025 190.822,174.555 190.382 C 174.871 190.120,174.933 188.190,174.933 178.651 C 174.933 171.879,175.039 166.956,175.193 166.551 L 175.453 165.867 195.557 165.867 C 215.492 165.867,215.667 165.862,216.364 165.314 L 217.067 164.761 217.067 119.969 L 217.067 75.176 216.412 74.521 L 215.758 73.867 174.855 73.867 L 133.952 73.867 133.643 74.546 M242.133 74.400 C 241.372 75.161,241.281 164.736,242.041 165.367 C 242.404 165.669,245.981 165.746,262.352 165.805 L 282.222 165.877 282.844 165.292 L 283.467 164.707 283.467 132.096 C 283.467 100.014,283.475 99.481,283.988 99.207 C 284.333 99.022,288.439 98.951,296.185 98.997 L 307.862 99.067 308.033 99.867 C 308.127 100.307,308.218 115.142,308.235 132.834 C 308.264 162.399,308.302 165.031,308.707 165.367 C 309.575 166.088,332.544 166.037,333.133 165.313 C 333.572 164.775,333.600 162.786,333.600 131.999 C 333.600 102.389,333.640 99.242,334.022 99.095 C 334.569 98.885,356.745 98.890,357.529 99.100 L 358.125 99.260 358.196 132.002 C 358.265 163.772,358.282 164.761,358.775 165.305 C 359.513 166.121,373.760 166.188,374.492 165.379 C 375.056 164.756,375.185 75.778,374.624 74.546 L 374.314 73.867 308.491 73.867 C 243.022 73.867,242.664 73.870,242.133 74.400 M107.667 119.937 L 107.735 165.075 100.067 165.004 L 92.400 164.933 92.336 132.133 L 92.273 99.333 91.707 98.867 C 90.928 98.224,67.655 98.142,66.784 98.778 C 66.278 99.149,66.264 99.878,66.133 132.045 L 66.000 164.933 45.936 165.067 C 29.381 165.177,25.849 165.138,25.736 164.845 C 25.541 164.337,25.567 75.596,25.762 75.088 C 25.909 74.704,29.696 74.671,66.762 74.732 L 107.600 74.800 107.667 119.937 M215.800 75.038 C 216.340 75.448,216.545 162.968,216.008 164.378 L 215.750 165.057 195.488 165.128 C 179.301 165.186,175.157 165.270,174.880 165.546 C 174.610 165.816,174.504 168.579,174.400 178.080 C 174.275 189.469,174.236 190.265,173.800 190.244 C 173.543 190.232,164.453 190.202,153.600 190.178 L 133.867 190.133 133.867 132.552 L 133.867 74.970 134.467 74.855 C 136.208 74.519,215.352 74.697,215.800 75.038 M374.238 75.088 C 374.433 75.596,374.459 164.337,374.264 164.845 C 374.153 165.133,372.716 165.175,366.597 165.067 L 359.067 164.933 359.003 132.133 L 358.939 99.333 358.374 98.867 C 357.728 98.334,334.423 98.141,333.600 98.661 C 333.249 98.883,333.184 102.969,333.067 131.924 L 332.933 164.933 321.467 165.007 C 315.160 165.048,309.730 165.016,309.400 164.936 L 308.800 164.790 308.800 132.010 L 308.800 99.230 308.207 98.815 C 307.409 98.256,284.561 98.191,283.467 98.745 L 282.800 99.082 282.667 132.008 L 282.533 164.933 262.800 164.997 C 251.947 165.032,242.919 164.966,242.738 164.851 C 242.076 164.428,242.138 75.285,242.800 74.962 C 243.829 74.461,374.045 74.586,374.238 75.088 M174.841 98.888 C 174.142 99.660,174.167 139.930,174.867 140.764 C 175.440 141.447,199.066 141.731,199.869 141.065 C 200.402 140.622,200.478 99.252,199.947 98.720 C 199.343 98.116,175.395 98.276,174.841 98.888 M199.578 99.095 C 200.096 99.294,200.234 138.927,199.721 140.054 L 199.442 140.667 187.521 140.590 C 176.803 140.521,175.566 140.468,175.267 140.072 C 175.007 139.729,174.933 135.180,174.933 119.438 C 174.933 103.533,175.004 99.216,175.267 99.110 C 175.747 98.916,199.074 98.902,199.578 99.095 " stroke="none" fill="#ec8484" fill-rule="evenodd"></path><path id="path2" d="M0.000 120.000 L 0.000 192.533 53.733 192.533 L 107.467 192.533 107.467 204.533 L 107.467 216.533 153.701 216.533 C 194.640 216.533,199.973 216.580,200.269 216.937 C 200.529 217.250,200.688 217.270,200.980 217.028 C 201.241 216.811,201.271 216.631,201.078 216.438 C 200.893 216.253,200.800 212.187,200.800 204.347 L 200.800 192.533 300.400 192.533 L 400.000 192.533 400.000 120.000 L 400.000 47.467 200.000 47.467 L 0.000 47.467 0.000 120.000 M107.872 72.952 C 108.168 73.032,108.678 73.487,109.005 73.965 L 109.600 74.833 109.600 119.964 L 109.600 165.095 108.867 166.014 L 108.133 166.933 100.094 166.933 L 92.055 166.933 91.228 165.991 L 90.400 165.048 90.400 132.813 C 90.400 115.083,90.327 100.387,90.238 100.155 C 89.979 99.479,69.216 99.521,68.023 100.200 L 67.203 100.667 67.198 133.333 C 67.194 153.445,67.095 166.154,66.939 166.400 C 66.701 166.776,26.859 167.318,25.641 166.962 C 24.213 166.544,24.266 168.364,24.271 120.045 C 24.275 72.867,24.258 73.521,25.491 73.037 C 26.066 72.811,107.037 72.728,107.872 72.952 M217.357 73.563 C 217.854 74.177,217.867 75.294,217.867 119.857 L 217.867 165.522 217.213 166.228 L 216.559 166.933 196.979 166.933 C 186.211 166.933,177.025 167.008,176.567 167.100 L 175.733 167.267 175.733 178.554 C 175.733 186.567,175.643 190.039,175.423 190.522 L 175.113 191.203 154.023 191.135 L 132.933 191.067 132.933 132.275 L 132.933 73.482 133.600 73.143 C 134.133 72.871,142.546 72.816,175.557 72.868 L 216.847 72.933 217.357 73.563 M374.638 73.044 C 375.736 73.738,375.725 73.283,375.729 120.184 C 375.732 149.802,375.643 165.091,375.467 165.200 C 375.320 165.291,375.200 165.591,375.200 165.867 C 375.200 167.008,374.654 167.074,366.352 166.933 L 358.497 166.800 357.782 166.028 L 357.067 165.255 357.063 133.094 C 357.061 115.406,356.987 100.663,356.899 100.333 L 356.738 99.733 346.102 99.733 C 335.822 99.733,335.449 99.751,334.933 100.267 C 334.406 100.794,334.400 101.156,334.400 132.867 C 334.399 162.861,334.369 164.994,333.933 165.867 L 333.467 166.800 321.021 166.869 L 308.576 166.939 308.021 166.233 L 307.467 165.528 307.467 132.469 C 307.467 102.433,307.428 99.424,307.045 99.571 C 306.813 99.660,301.654 99.733,295.581 99.733 L 284.540 99.733 284.470 132.690 L 284.400 165.646 283.652 166.290 L 282.904 166.933 262.404 166.933 L 241.905 166.933 241.353 166.231 L 240.800 165.528 240.800 119.890 C 240.800 69.883,240.690 73.240,242.336 72.991 C 243.837 72.763,374.278 72.815,374.638 73.044 M198.933 99.467 C 198.692 99.623,194.243 99.727,187.726 99.729 C 178.381 99.733,176.838 99.789,176.326 100.148 L 175.733 100.564 175.733 119.982 L 175.733 139.400 176.567 139.567 C 177.025 139.658,182.365 139.733,188.433 139.733 L 199.467 139.733 199.467 119.467 C 199.467 108.320,199.437 99.202,199.400 99.204 C 199.363 99.206,199.153 99.324,198.933 99.467 " stroke="none" fill="#d40404" fill-rule="evenodd"></path><path id="path3" d="M25.683 73.543 C 24.823 74.090,24.800 75.299,24.800 120.115 L 24.800 164.995 25.353 165.697 L 25.905 166.400 45.446 166.400 C 66.165 166.400,66.484 166.381,66.952 165.150 C 67.100 164.762,67.200 151.296,67.200 131.849 L 67.200 99.200 78.918 99.200 C 87.999 99.200,90.684 99.275,90.851 99.533 C 90.970 99.717,91.127 114.604,91.200 132.615 L 91.333 165.364 92.000 165.876 C 93.025 166.663,106.975 166.663,108.000 165.876 L 108.667 165.364 108.667 119.910 C 108.667 75.586,108.654 74.442,108.159 73.895 L 107.651 73.333 66.825 73.337 C 44.371 73.340,25.858 73.432,25.683 73.543 M133.484 73.924 C 132.784 74.922,132.854 190.125,133.554 190.759 C 134.347 191.476,174.108 191.431,174.759 190.712 C 175.155 190.274,175.200 189.042,175.200 178.588 C 175.200 167.357,175.218 166.942,175.716 166.676 C 176.058 166.493,182.785 166.400,195.683 166.400 C 216.920 166.400,216.772 166.410,217.345 164.902 C 217.511 164.467,217.580 148.001,217.536 119.451 L 217.467 74.681 216.859 74.074 L 216.252 73.467 175.076 73.398 L 133.900 73.328 133.484 73.924 M242.196 73.610 C 241.057 74.067,241.067 73.670,241.067 119.867 C 241.067 167.791,240.994 165.601,242.605 166.083 C 244.361 166.609,281.644 166.529,282.672 165.997 C 284.047 165.286,284.000 166.477,284.004 132.484 C 284.006 114.838,284.080 100.130,284.168 99.800 L 284.329 99.200 296.031 99.200 L 307.733 99.200 307.733 131.849 C 307.733 151.296,307.833 164.762,307.981 165.150 C 308.428 166.326,309.214 166.400,321.252 166.400 L 332.558 166.400 333.212 165.745 L 333.867 165.091 333.870 132.745 C 333.872 114.955,333.946 100.130,334.035 99.800 L 334.196 99.200 345.738 99.200 L 357.281 99.200 357.574 100.040 C 357.780 100.632,357.867 110.362,357.867 132.986 L 357.867 165.092 358.572 165.746 L 359.278 166.400 366.655 166.400 C 373.720 166.400,374.058 166.377,374.619 165.854 L 375.205 165.308 375.136 119.762 C 375.078 81.624,375.007 74.144,374.701 73.774 C 374.283 73.271,243.444 73.108,242.196 73.610 M108.126 74.653 C 108.855 76.062,108.731 164.602,108.000 165.333 C 107.213 166.120,92.886 166.165,92.179 165.384 C 91.780 164.942,91.736 162.067,91.671 132.206 C 91.632 114.224,91.500 99.411,91.378 99.289 C 91.256 99.167,85.741 99.067,79.122 99.067 L 67.089 99.067 66.886 100.000 C 66.774 100.513,66.681 108.253,66.678 117.200 C 66.666 168.562,66.698 164.997,66.248 165.448 C 65.874 165.821,63.657 165.867,45.854 165.867 L 25.879 165.867 25.471 165.243 C 24.887 164.352,24.980 75.013,25.566 74.308 C 25.904 73.901,29.113 73.867,66.826 73.867 L 107.720 73.867 108.126 74.653 M216.412 74.521 L 217.067 75.176 217.067 119.969 L 217.067 164.761 216.364 165.314 C 215.667 165.862,215.492 165.867,195.557 165.867 L 175.453 165.867 175.193 166.551 C 175.039 166.956,174.933 171.879,174.933 178.651 C 174.933 188.190,174.871 190.120,174.555 190.382 C 174.025 190.822,134.224 190.807,133.694 190.368 C 133.201 189.959,133.150 75.626,133.643 74.546 L 133.952 73.867 174.855 73.867 L 215.758 73.867 216.412 74.521 M374.624 74.546 C 375.185 75.778,375.056 164.756,374.492 165.379 C 373.760 166.188,359.513 166.121,358.775 165.305 C 358.282 164.761,358.265 163.772,358.196 132.002 L 358.125 99.260 357.529 99.100 C 356.745 98.890,334.569 98.885,334.022 99.095 C 333.640 99.242,333.600 102.389,333.600 131.999 C 333.600 162.786,333.572 164.775,333.133 165.313 C 332.544 166.037,309.575 166.088,308.707 165.367 C 308.302 165.031,308.264 162.399,308.235 132.834 C 308.218 115.142,308.127 100.307,308.033 99.867 L 307.862 99.067 296.185 98.997 C 288.439 98.951,284.333 99.022,283.988 99.207 C 283.475 99.481,283.467 100.014,283.467 132.096 L 283.467 164.707 282.844 165.292 L 282.222 165.877 262.352 165.805 C 245.981 165.746,242.404 165.669,242.041 165.367 C 241.281 164.736,241.372 75.161,242.133 74.400 C 242.664 73.870,243.022 73.867,308.491 73.867 L 374.314 73.867 374.624 74.546 M175.267 99.110 C 175.004 99.216,174.933 103.533,174.933 119.438 C 174.933 135.180,175.007 139.729,175.267 140.072 C 175.566 140.468,176.803 140.521,187.521 140.590 L 199.442 140.667 199.721 140.054 C 200.234 138.927,200.096 99.294,199.578 99.095 C 199.074 98.902,175.747 98.916,175.267 99.110 M199.600 119.645 C 199.600 130.816,199.540 139.996,199.467 140.045 C 199.393 140.093,193.933 140.073,187.333 140.000 L 175.333 139.867 175.260 120.133 C 175.219 109.280,175.252 100.129,175.332 99.797 L 175.478 99.195 187.539 99.264 L 199.600 99.333 199.600 119.645 " stroke="none" fill="#e45454" fill-rule="evenodd"></path><path id="path4" d="M25.491 73.037 C 24.258 73.521,24.275 72.867,24.271 120.045 C 24.266 168.364,24.213 166.544,25.641 166.962 C 25.838 167.019,35.154 167.007,46.343 166.933 C 68.474 166.788,67.209 166.885,67.179 165.333 C 67.167 164.698,67.155 164.693,66.937 165.233 C 66.479 166.369,65.916 166.400,45.446 166.400 L 25.905 166.400 25.353 165.697 L 24.800 164.995 24.800 120.115 C 24.800 75.299,24.823 74.090,25.683 73.543 C 25.858 73.432,44.371 73.340,66.825 73.337 L 107.651 73.333 108.159 73.895 C 108.654 74.442,108.667 75.586,108.667 119.910 L 108.667 165.364 108.000 165.876 C 106.975 166.663,93.025 166.663,92.000 165.876 L 91.333 165.364 91.200 132.615 C 91.127 114.604,90.970 99.717,90.851 99.533 C 90.684 99.275,87.999 99.200,78.918 99.200 L 67.200 99.200 67.200 99.867 C 67.200 100.631,67.418 100.695,68.149 100.142 C 68.959 99.529,90.003 99.542,90.238 100.155 C 90.327 100.387,90.400 115.083,90.400 132.813 L 90.400 165.048 91.228 165.991 L 92.055 166.933 100.094 166.933 L 108.133 166.933 108.867 166.014 L 109.600 165.095 109.600 119.964 L 109.600 74.833 109.005 73.965 C 108.678 73.487,108.168 73.032,107.872 72.952 C 107.037 72.728,26.066 72.811,25.491 73.037 M133.600 73.143 L 132.933 73.482 132.933 132.271 C 132.933 190.848,132.935 191.060,133.467 191.161 C 133.978 191.258,133.980 191.240,133.533 190.743 C 133.092 190.253,133.067 187.093,133.067 132.342 C 133.067 77.610,133.092 74.428,133.533 73.891 L 134.000 73.322 175.126 73.394 L 216.252 73.467 216.859 74.074 L 217.467 74.681 217.536 119.451 C 217.580 148.001,217.511 164.467,217.345 164.902 C 216.772 166.410,216.920 166.400,195.683 166.400 C 182.785 166.400,176.058 166.493,175.716 166.676 C 175.218 166.942,175.200 167.357,175.200 178.588 C 175.200 189.042,175.155 190.274,174.759 190.712 C 174.384 191.126,174.378 191.200,174.716 191.200 C 175.643 191.200,175.733 190.071,175.733 178.554 L 175.733 167.267 176.567 167.100 C 177.025 167.008,186.211 166.933,196.979 166.933 L 216.559 166.933 217.213 166.228 L 217.867 165.522 217.867 119.857 C 217.867 75.294,217.854 74.177,217.357 73.563 L 216.847 72.933 175.557 72.868 C 142.546 72.816,134.133 72.871,133.600 73.143 M242.336 72.991 C 240.690 73.240,240.800 69.883,240.800 119.890 L 240.800 165.528 241.353 166.231 L 241.905 166.933 262.404 166.933 L 282.904 166.933 283.652 166.290 L 284.400 165.646 284.470 132.690 L 284.540 99.733 295.581 99.733 C 301.654 99.733,306.813 99.660,307.045 99.571 C 307.428 99.424,307.467 102.433,307.467 132.469 L 307.467 165.528 308.021 166.233 L 308.576 166.939 321.021 166.869 L 333.467 166.800 333.933 165.867 C 334.369 164.994,334.399 162.861,334.400 132.867 C 334.400 101.156,334.406 100.794,334.933 100.267 C 335.449 99.751,335.822 99.733,346.102 99.733 L 356.738 99.733 356.899 100.333 C 356.987 100.663,357.061 115.406,357.063 133.094 L 357.067 165.255 357.782 166.028 L 358.497 166.800 366.352 166.933 C 374.654 167.074,375.200 167.008,375.200 165.867 C 375.200 165.591,375.320 165.291,375.467 165.200 C 375.643 165.091,375.732 149.802,375.729 120.184 C 375.725 73.283,375.736 73.738,374.638 73.044 C 374.278 72.815,243.837 72.763,242.336 72.991 M374.701 73.774 C 375.007 74.144,375.078 81.624,375.136 119.762 L 375.205 165.308 374.619 165.854 C 374.058 166.377,373.720 166.400,366.655 166.400 L 359.278 166.400 358.572 165.746 L 357.867 165.092 357.867 132.986 C 357.867 110.362,357.780 100.632,357.574 100.040 L 357.281 99.200 345.738 99.200 L 334.196 99.200 334.035 99.800 C 333.946 100.130,333.872 114.955,333.870 132.745 L 333.867 165.091 333.212 165.745 L 332.558 166.400 321.252 166.400 C 309.214 166.400,308.428 166.326,307.981 165.150 C 307.833 164.762,307.733 151.296,307.733 131.849 L 307.733 99.200 296.031 99.200 L 284.329 99.200 284.168 99.800 C 284.080 100.130,284.006 114.838,284.004 132.484 C 284.000 166.477,284.047 165.286,282.672 165.997 C 281.644 166.529,244.361 166.609,242.605 166.083 C 240.994 165.601,241.067 167.791,241.067 119.867 C 241.067 73.670,241.057 74.067,242.196 73.610 C 243.444 73.108,374.283 73.271,374.701 73.774 M175.362 99.622 C 175.015 100.527,175.182 139.744,175.533 139.869 C 176.119 140.079,199.467 140.141,199.467 139.933 C 199.467 139.823,194.502 139.733,188.433 139.733 C 182.365 139.733,177.025 139.658,176.567 139.567 L 175.733 139.400 175.733 119.982 L 175.733 100.564 176.326 100.148 C 176.838 99.789,178.381 99.733,187.726 99.729 C 194.243 99.727,198.692 99.623,198.933 99.467 C 199.195 99.298,195.213 99.207,187.429 99.204 C 176.816 99.200,175.506 99.246,175.362 99.622 M199.593 119.467 C 199.593 130.540,199.626 135.070,199.667 129.533 C 199.707 123.997,199.707 114.937,199.667 109.400 C 199.626 103.863,199.593 108.393,199.593 119.467 " stroke="none" fill="#dc2424" fill-rule="evenodd"></path></g></svg>